<?xml version="1.0" encoding="UTF-8"?>
<!DOCTYPE svg PUBLIC "-//W3C//DTD SVG 1.1//EN" "http://www.w3.org/Graphics/SVG/1.1/DTD/svg11.dtd">
<svg xmlns="http://www.w3.org/2000/svg" version="1.1" width="512px" height="512px" style="shape-rendering:geometricPrecision; text-rendering:geometricPrecision; image-rendering:optimizeQuality; fill-rule:evenodd; clip-rule:evenodd" xmlns:xlink="http://www.w3.org/1999/xlink">
<g><path style="opacity:0.994" fill="#e91d25" d="M 131.5,118.5 C 131.5,209.833 131.5,301.167 131.5,392.5C 94.8333,392.5 58.1667,392.5 21.5,392.5C 21.5,301.167 21.5,209.833 21.5,118.5C 58.1667,118.5 94.8333,118.5 131.5,118.5 Z"/></g>
<g><path style="opacity:1" fill="#f3f2f2" d="M 131.5,118.5 C 214.167,118.5 296.833,118.5 379.5,118.5C 379.5,209.833 379.5,301.167 379.5,392.5C 296.833,392.5 214.167,392.5 131.5,392.5C 131.5,301.167 131.5,209.833 131.5,118.5 Z"/></g>
<g><path style="opacity:0.994" fill="#e91d25" d="M 379.5,118.5 C 416.167,118.5 452.833,118.5 489.5,118.5C 489.5,209.833 489.5,301.167 489.5,392.5C 452.833,392.5 416.167,392.5 379.5,392.5C 379.5,301.167 379.5,209.833 379.5,118.5 Z"/></g>
<g><path style="opacity:1" fill="#e81e26" d="M 254.5,155.5 C 255.376,155.369 256.043,155.702 256.5,156.5C 262.04,167.08 267.706,177.58 273.5,188C 275.167,188.667 276.833,188.667 278.5,188C 282.626,186.034 286.626,183.868 290.5,181.5C 290.833,182.167 291.167,182.833 291.5,183.5C 288.056,200.448 285.223,217.448 283,234.5C 284.938,236.978 287.105,237.145 289.5,235C 295.972,226.694 302.972,218.861 310.5,211.5C 312.033,215.432 313.366,219.432 314.5,223.5C 315.438,224.553 316.605,225.22 318,225.5C 326.911,223.082 335.744,221.415 344.5,220.5C 341.522,230.414 338.855,240.414 336.5,250.5C 336.57,251.772 336.903,252.938 337.5,254C 340.994,255.579 344.327,257.413 347.5,259.5C 332.507,272.991 317.34,286.324 302,299.5C 302.202,304.983 303.369,310.316 305.5,315.5C 303.667,315.833 301.833,316.167 300,316.5C 287.133,315.067 274.3,313.4 261.5,311.5C 260.558,311.608 259.725,311.941 259,312.5C 258.5,329.497 258.333,346.497 258.5,363.5C 256.167,363.5 253.833,363.5 251.5,363.5C 252.247,346.828 252.747,330.161 253,313.5C 252.196,312.196 251.029,311.529 249.5,311.5C 234.865,313.998 220.199,315.332 205.5,315.5C 207.624,310.314 208.791,304.981 209,299.5C 193.66,286.324 178.493,272.991 163.5,259.5C 166.673,257.413 170.006,255.579 173.5,254C 174.097,252.938 174.43,251.772 174.5,250.5C 172.145,240.414 169.478,230.414 166.5,220.5C 166.833,220.167 167.167,219.833 167.5,219.5C 176.391,222.142 185.391,223.975 194.5,225C 195.667,224.5 196.5,223.667 197,222.5C 197.726,218.249 199.059,214.249 201,210.5C 207.833,218.667 214.667,226.833 221.5,235C 223.298,236.505 225.132,236.672 227,235.5C 225.919,218.009 223.419,200.676 219.5,183.5C 219.833,182.833 220.167,182.167 220.5,181.5C 224.66,183.412 228.66,185.579 232.5,188C 234.167,188.667 235.833,188.667 237.5,188C 243.575,177.349 249.241,166.516 254.5,155.5 Z"/></g>
</svg>
