<?xml version="1.0" encoding="UTF-8"?>
<!DOCTYPE svg PUBLIC "-//W3C//DTD SVG 1.1//EN" "http://www.w3.org/Graphics/SVG/1.1/DTD/svg11.dtd">
<svg xmlns="http://www.w3.org/2000/svg" version="1.1" width="102px" height="207px" style="shape-rendering:geometricPrecision; text-rendering:geometricPrecision; image-rendering:optimizeQuality; fill-rule:evenodd; clip-rule:evenodd" xmlns:xlink="http://www.w3.org/1999/xlink">
<g><path style="opacity:0.875" fill="#8ed521" d="M 50.5,-0.5 C 50.8333,-0.5 51.1667,-0.5 51.5,-0.5C 55.6622,6.82268 58.9956,14.4894 61.5,22.5C 58.2991,15.7684 54.7991,9.10171 51,2.5C 45.0661,11.7011 40.2328,21.3678 36.5,31.5C 39.5478,20.0761 44.2145,9.40944 50.5,-0.5 Z"/></g>
<g><path style="opacity:0.994" fill="#7fbd1e" d="M 61.5,22.5 C 65.6755,31.3627 68.6755,40.696 70.5,50.5C 69.325,50.281 68.325,50.6143 67.5,51.5C 74.3562,67.068 80.0229,83.068 84.5,99.5C 83.2342,100.362 81.9008,101.029 80.5,101.5C 60.807,106.811 41.1403,106.811 21.5,101.5C 19.4334,101.468 18.1001,100.468 17.5,98.5C 21.304,82.2488 26.9706,66.7488 34.5,52C 32.7774,51.4768 31.444,50.4768 30.5,49C 32.0346,42.8931 34.0346,37.0598 36.5,31.5C 40.2328,21.3678 45.0661,11.7011 51,2.5C 54.7991,9.10171 58.2991,15.7684 61.5,22.5 Z"/></g>
<g><path style="opacity:1" fill="#77b01c" d="M 21.5,101.5 C 41.1403,106.811 60.807,106.811 80.5,101.5C 80.5,102.167 80.5,102.833 80.5,103.5C 70.8283,107.102 60.8283,109.435 50.5,110.5C 40.0447,109.944 30.0447,107.61 20.5,103.5C 20.8333,102.833 21.1667,102.167 21.5,101.5 Z"/></g>
<g><path style="opacity:0.996" fill="#7fbd1e" d="M 20.5,103.5 C 30.0447,107.61 40.0447,109.944 50.5,110.5C 60.8283,109.435 70.8283,107.102 80.5,103.5C 85.7946,116.49 89.7946,129.99 92.5,144C 92.2849,145.908 91.2849,147.074 89.5,147.5C 63.7898,156.73 38.1231,156.73 12.5,147.5C 10.6891,147.428 9.35574,146.595 8.5,145C 11.3432,130.787 15.3432,116.954 20.5,103.5 Z"/></g>
<g><path style="opacity:0.995" fill="#7fbd1e" d="M 12.5,148.5 C 28.7237,157.415 46.057,160.248 64.5,157C 73.2313,154.588 81.898,152.088 90.5,149.5C 93.7754,156.384 96.7754,163.384 99.5,170.5C 67.1541,182.462 34.8207,182.462 2.5,170.5C 3.83076,165.343 5.6641,160.343 8,155.5C 9.02594,152.761 10.5259,150.428 12.5,148.5 Z"/></g>
<g><path style="opacity:1" fill="#77b01c" d="M 12.5,147.5 C 38.1231,156.73 63.7898,156.73 89.5,147.5C 89.8333,148.167 90.1667,148.833 90.5,149.5C 81.898,152.088 73.2313,154.588 64.5,157C 46.057,160.248 28.7237,157.415 12.5,148.5C 12.5,148.167 12.5,147.833 12.5,147.5 Z"/></g>
<g><path style="opacity:1" fill="#79b51c" d="M 2.5,170.5 C 34.8207,182.462 67.1541,182.462 99.5,170.5C 99.7959,172.403 100.463,174.07 101.5,175.5C 101.5,177.5 101.5,179.5 101.5,181.5C 88.4499,186.844 74.7833,189.511 60.5,189.5C 53.8333,189.5 47.1667,189.5 40.5,189.5C 27.0203,189.365 14.0203,186.865 1.5,182C 0.915201,180.698 0.248534,179.531 -0.5,178.5C -0.5,178.167 -0.5,177.833 -0.5,177.5C 0.348502,175.112 1.3485,172.779 2.5,170.5 Z"/></g>
<g><path style="opacity:1" fill="#b98656" d="M 40.5,189.5 C 47.1667,189.5 53.8333,189.5 60.5,189.5C 60.9211,195.202 61.5878,200.869 62.5,206.5C 54.5,206.5 46.5,206.5 38.5,206.5C 39.1667,200.833 39.8333,195.167 40.5,189.5 Z"/></g>
</svg>
