<?xml version="1.0" encoding="UTF-8"?>
<!DOCTYPE svg PUBLIC "-//W3C//DTD SVG 1.1//EN" "http://www.w3.org/Graphics/SVG/1.1/DTD/svg11.dtd">
<svg xmlns="http://www.w3.org/2000/svg" version="1.1" width="122px" height="208px" style="shape-rendering:geometricPrecision; text-rendering:geometricPrecision; image-rendering:optimizeQuality; fill-rule:evenodd; clip-rule:evenodd" xmlns:xlink="http://www.w3.org/1999/xlink">
<g><path style="opacity:1" fill="#90d721" d="M 51.5,-0.5 C 53.8333,-0.5 56.1667,-0.5 58.5,-0.5C 61.2341,0.704964 63.9007,2.20496 66.5,4C 75.3082,1.71628 82.8082,3.88295 89,10.5C 90.4114,12.6504 91.2447,14.9837 91.5,17.5C 86.4987,7.75406 78.6653,4.42072 68,7.5C 60.7172,1.95476 52.8839,1.12142 44.5,5C 41.4024,7.42797 39.069,10.428 37.5,14C 29.9748,15.5703 24.6415,19.737 21.5,26.5C 23.2793,17.9083 28.6127,12.9083 37.5,11.5C 40.0745,4.91657 44.7411,0.916566 51.5,-0.5 Z"/></g>
<g><path style="opacity:0.998" fill="#80be1f" d="M 91.5,17.5 C 91.3398,19.1992 91.5065,20.8659 92,22.5C 98.3518,25.0203 102.852,29.3536 105.5,35.5C 105.337,37.8568 105.503,40.1902 106,42.5C 113.114,48.6255 115.781,56.2922 114,65.5C 119.543,71.9275 120.71,79.0942 117.5,87C 119.17,89.7879 120.503,92.6212 121.5,95.5C 121.5,98.5 121.5,101.5 121.5,104.5C 119.017,107.467 118.35,110.801 119.5,114.5C 118.659,119.014 115.992,122.014 111.5,123.5C 111.057,127.884 109.39,131.717 106.5,135C 102.222,137.74 97.5556,139.573 92.5,140.5C 89.1252,145.862 84.4585,147.862 78.5,146.5C 78.2648,145.903 77.7648,145.57 77,145.5C 73.4699,146.951 69.9699,148.285 66.5,149.5C 66.3144,139.817 66.1477,130.15 66,120.5C 68.7404,115.097 72.2404,110.263 76.5,106C 75.9407,103.812 74.6073,103.146 72.5,104C 70.4514,106.593 68.2848,109.093 66,111.5C 65.1552,100.096 65.6552,88.763 67.5,77.5C 66.325,77.281 65.325,77.6143 64.5,78.5C 63.2361,81.1253 62.0695,83.7919 61,86.5C 57.8405,82.3412 54.3405,78.5079 50.5,75C 48.3594,74.1163 46.6927,74.6163 45.5,76.5C 49.9992,80.1827 53.1659,84.8493 55,90.5C 55.6667,102.167 55.6667,113.833 55,125.5C 54.6667,126.167 54.3333,126.833 54,127.5C 52.9887,126.663 51.8221,126.33 50.5,126.5C 50.954,129.14 52.1207,131.473 54,133.5C 54.6761,138.871 54.5095,144.204 53.5,149.5C 48.8458,149.672 44.8458,148.172 41.5,145C 35.0876,145.305 29.0876,143.972 23.5,141C 21.0696,138.805 19.4029,136.138 18.5,133C 12.7722,132.146 8.43887,129.313 5.5,124.5C 2.44737,121.717 0.447371,118.383 -0.5,114.5C -0.5,111.5 -0.5,108.5 -0.5,105.5C 0.418466,103.18 1.7518,101.013 3.5,99C -0.666455,90.9742 0.000211893,83.3075 5.5,76C 2.6857,67.1384 4.6857,59.6384 11.5,53.5C 9.34122,44.4837 12.1746,37.4837 20,32.5C 20.1909,30.2922 20.6909,28.2922 21.5,26.5C 24.6415,19.737 29.9748,15.5703 37.5,14C 39.069,10.428 41.4024,7.42797 44.5,5C 52.8839,1.12142 60.7172,1.95476 68,7.5C 78.6653,4.42072 86.4987,7.75406 91.5,17.5 Z"/></g>
<g><path style="opacity:0.791" fill="#8fd621" d="M 91.5,17.5 C 92.2485,18.531 92.9152,19.6976 93.5,21C 100.582,23.2517 104.582,28.085 105.5,35.5C 102.852,29.3536 98.3518,25.0203 92,22.5C 91.5065,20.8659 91.3398,19.1992 91.5,17.5 Z"/></g>
<g><path style="opacity:1" fill="#ba8856" d="M 78.5,146.5 C 74.9424,149.552 71.4424,152.886 68,156.5C 67.2446,160.255 67.4113,163.922 68.5,167.5C 69.1756,180.904 70.5089,194.237 72.5,207.5C 64.5,207.5 56.5,207.5 48.5,207.5C 50.1992,195.54 51.5326,183.54 52.5,171.5C 52.631,170.761 52.4643,170.094 52,169.5C 49.7045,167.943 47.5378,166.276 45.5,164.5C 47.9593,163.357 50.2927,163.69 52.5,165.5C 53.4948,160.208 53.8282,154.875 53.5,149.5C 54.5095,144.204 54.6761,138.871 54,133.5C 52.1207,131.473 50.954,129.14 50.5,126.5C 51.8221,126.33 52.9887,126.663 54,127.5C 54.3333,126.833 54.6667,126.167 55,125.5C 55.6667,113.833 55.6667,102.167 55,90.5C 53.1659,84.8493 49.9992,80.1827 45.5,76.5C 46.6927,74.6163 48.3594,74.1163 50.5,75C 54.3405,78.5079 57.8405,82.3412 61,86.5C 62.0695,83.7919 63.2361,81.1253 64.5,78.5C 65.325,77.6143 66.325,77.281 67.5,77.5C 65.6552,88.763 65.1552,100.096 66,111.5C 68.2848,109.093 70.4514,106.593 72.5,104C 74.6073,103.146 75.9407,103.812 76.5,106C 72.2404,110.263 68.7404,115.097 66,120.5C 66.1477,130.15 66.3144,139.817 66.5,149.5C 69.9699,148.285 73.4699,146.951 77,145.5C 77.7648,145.57 78.2648,145.903 78.5,146.5 Z"/></g>
<g><path style="opacity:1" fill="#75ae1b" d="M 119.5,114.5 C 122.454,123.61 119.954,130.943 112,136.5C 111.296,148.428 105.129,155.595 93.5,158C 87.7575,167.97 79.4241,171.137 68.5,167.5C 67.4113,163.922 67.2446,160.255 68,156.5C 71.4424,152.886 74.9424,149.552 78.5,146.5C 84.4585,147.862 89.1252,145.862 92.5,140.5C 97.5556,139.573 102.222,137.74 106.5,135C 109.39,131.717 111.057,127.884 111.5,123.5C 115.992,122.014 118.659,119.014 119.5,114.5 Z"/></g>
<g><path style="opacity:1" fill="#76ae1c" d="M 5.5,124.5 C 8.43887,129.313 12.7722,132.146 18.5,133C 19.4029,136.138 21.0696,138.805 23.5,141C 29.0876,143.972 35.0876,145.305 41.5,145C 44.8458,148.172 48.8458,149.672 53.5,149.5C 53.8282,154.875 53.4948,160.208 52.5,165.5C 50.2927,163.69 47.9593,163.357 45.5,164.5C 47.5378,166.276 49.7045,167.943 52,169.5C 52.4643,170.094 52.631,170.761 52.5,171.5C 47.9324,170.882 44.2658,168.715 41.5,165C 29.1753,165.679 21.1753,160.179 17.5,148.5C 6.58531,144.004 2.58531,136.004 5.5,124.5 Z"/></g>
</svg>
