<?xml version="1.0" encoding="UTF-8"?>
<!DOCTYPE svg PUBLIC "-//W3C//DTD SVG 1.1//EN" "http://www.w3.org/Graphics/SVG/1.1/DTD/svg11.dtd">
<svg xmlns="http://www.w3.org/2000/svg" version="1.1" width="102px" height="287px" style="shape-rendering:geometricPrecision; text-rendering:geometricPrecision; image-rendering:optimizeQuality; fill-rule:evenodd; clip-rule:evenodd" xmlns:xlink="http://www.w3.org/1999/xlink">
<g><path style="opacity:0.624" fill="#8ed520" d="M 49.5,-0.5 C 49.8333,-0.5 50.1667,-0.5 50.5,-0.5C 56.7855,9.40944 61.4522,20.0761 64.5,31.5C 60.7286,21.3854 55.8952,11.7187 50,2.5C 44.6512,11.5278 40.1512,20.8612 36.5,30.5C 39.468,19.5677 43.8013,9.23435 49.5,-0.5 Z"/></g>
<g><path style="opacity:0.994" fill="#7fbd1e" d="M 64.5,31.5 C 66.7164,37.1691 68.7164,43.0025 70.5,49C 69.2718,49.779 68.2718,50.779 67.5,52C 74.1251,67.0415 79.4584,82.5415 83.5,98.5C 82.8999,100.468 81.5666,101.468 79.5,101.5C 59.8282,106.833 40.1616,106.833 20.5,101.5C 19.0992,101.029 17.7658,100.362 16.5,99.5C 20.7816,83.321 26.4483,67.6543 33.5,52.5C 32.2485,51.3689 31.2485,50.0356 30.5,48.5C 31.9342,42.1974 33.9342,36.1974 36.5,30.5C 40.1512,20.8612 44.6512,11.5278 50,2.5C 55.8952,11.7187 60.7286,21.3854 64.5,31.5 Z"/></g>
<g><path style="opacity:1" fill="#77b01c" d="M 20.5,101.5 C 40.1616,106.833 59.8282,106.833 79.5,101.5C 79.8333,102.167 80.1667,102.833 80.5,103.5C 70.5067,107.248 60.1733,109.581 49.5,110.5C 39.3884,109.889 29.7217,107.555 20.5,103.5C 20.5,102.833 20.5,102.167 20.5,101.5 Z"/></g>
<g><path style="opacity:0.996" fill="#7fbd1e" d="M 20.5,103.5 C 29.7217,107.555 39.3884,109.889 49.5,110.5C 60.1733,109.581 70.5067,107.248 80.5,103.5C 85.401,117.04 89.401,130.874 92.5,145C 91.556,146.477 90.2226,147.477 88.5,148C 92.7869,155.074 96.1203,162.574 98.5,170.5C 66.2046,182.426 33.8713,182.426 1.5,170.5C 4.22458,163.384 7.22458,156.384 10.5,149.5C 18.3714,152.261 26.3714,154.761 34.5,157C 52.9872,159.903 70.6538,157.237 87.5,149C 80.4041,150.395 73.2374,151.895 66,153.5C 47.2383,156.31 29.0716,154.31 11.5,147.5C 9.71512,147.074 8.71512,145.908 8.5,144C 11.2054,129.99 15.2054,116.49 20.5,103.5 Z"/></g>
<g><path style="opacity:1" fill="#77b01c" d="M 11.5,147.5 C 29.0716,154.31 47.2383,156.31 66,153.5C 73.2374,151.895 80.4041,150.395 87.5,149C 70.6538,157.237 52.9872,159.903 34.5,157C 26.3714,154.761 18.3714,152.261 10.5,149.5C 10.8333,148.833 11.1667,148.167 11.5,147.5 Z"/></g>
<g><path style="opacity:1" fill="#79b51c" d="M 1.5,170.5 C 33.8713,182.426 66.2046,182.426 98.5,170.5C 99.5,172.5 100.5,174.5 101.5,176.5C 101.5,178.167 101.5,179.833 101.5,181.5C 87.1146,187.242 72.1146,189.909 56.5,189.5C 50.5,189.5 44.5,189.5 38.5,189.5C 26.9765,188.857 15.6431,187.024 4.5,184C 2.67694,183.003 1.01027,181.836 -0.5,180.5C -0.5,178.833 -0.5,177.167 -0.5,175.5C 0.53747,174.07 1.20414,172.403 1.5,170.5 Z"/></g>
<g><path style="opacity:1" fill="#ba8756" d="M 38.5,189.5 C 44.5,189.5 50.5,189.5 56.5,189.5C 56.1703,195.868 56.5037,202.202 57.5,208.5C 60.6259,207.069 63.7926,205.736 67,204.5C 68.2798,204.613 69.1131,205.28 69.5,206.5C 63.6012,209.9 59.2678,214.734 56.5,221C 57.6594,242.904 59.6594,264.737 62.5,286.5C 54.5,286.5 46.5,286.5 38.5,286.5C 40.5859,273.564 41.7525,260.564 42,247.5C 41,245.833 40,244.167 39,242.5C 35.1468,239.309 31.3134,236.143 27.5,233C 28.2084,230.277 29.8751,229.277 32.5,230C 36,232.833 39.5,235.667 43,238.5C 44.0603,224.51 44.3936,210.51 44,196.5C 42.3335,194.004 40.5002,191.671 38.5,189.5 Z"/></g>
</svg>
