<?xml version="1.0" encoding="UTF-8"?>
<!DOCTYPE svg PUBLIC "-//W3C//DTD SVG 1.1//EN" "http://www.w3.org/Graphics/SVG/1.1/DTD/svg11.dtd">
<svg xmlns="http://www.w3.org/2000/svg" version="1.1" width="48px" height="48px" style="shape-rendering:geometricPrecision; text-rendering:geometricPrecision; image-rendering:optimizeQuality; fill-rule:evenodd; clip-rule:evenodd" xmlns:xlink="http://www.w3.org/1999/xlink">
<g><path style="opacity:1" fill="#4eaf4f" d="M 1.5,8.5 C 16.1667,8.5 30.8333,8.5 45.5,8.5C 45.5,18.5 45.5,28.5 45.5,38.5C 30.8333,38.5 16.1667,38.5 1.5,38.5C 1.5,28.5 1.5,18.5 1.5,8.5 Z"/></g>
<g><path style="opacity:1" fill="#f5e63e" d="M 22.5,11.5 C 28.8237,14.9965 34.8237,18.9965 40.5,23.5C 35.0463,27.7335 29.3796,31.7335 23.5,35.5C 17.6204,31.7335 11.9537,27.7335 6.5,23.5C 11.8631,19.491 17.1964,15.491 22.5,11.5 Z"/></g>
<g><path style="opacity:1" fill="#525eb4" d="M 30.5,23.5 C 26.5191,21.1191 22.1857,20.1191 17.5,20.5C 21.4571,15.3002 25.6238,15.3002 30,20.5C 30.4828,21.448 30.6495,22.448 30.5,23.5 Z"/></g>
<g><path style="opacity:1" fill="#e6e8f2" d="M 17.5,20.5 C 22.1857,20.1191 26.5191,21.1191 30.5,23.5C 30.7373,24.791 30.404,25.791 29.5,26.5C 29.0472,25.5416 28.3805,24.7083 27.5,24C 23.9137,22.8924 20.247,22.3924 16.5,22.5C 16.3284,21.5084 16.6618,20.8417 17.5,20.5 Z"/></g>
<g><path style="opacity:1" fill="#4454b3" d="M 16.5,22.5 C 20.247,22.3924 23.9137,22.8924 27.5,24C 28.3805,24.7083 29.0472,25.5416 29.5,26.5C 26.0141,31.2329 22.1808,31.5663 18,27.5C 16.9914,25.9751 16.4914,24.3084 16.5,22.5 Z"/></g>
</svg>
