<?xml version="1.0" encoding="UTF-8"?>
<!DOCTYPE svg PUBLIC "-//W3C//DTD SVG 1.1//EN" "http://www.w3.org/Graphics/SVG/1.1/DTD/svg11.dtd">
<svg xmlns="http://www.w3.org/2000/svg" version="1.1" width="48px" height="48px" style="shape-rendering:geometricPrecision; text-rendering:geometricPrecision; image-rendering:optimizeQuality; fill-rule:evenodd; clip-rule:evenodd" xmlns:xlink="http://www.w3.org/1999/xlink">
<g><path style="opacity:0.987" fill="#cd4d29" d="M 30.5,12.5 C 30.5,22.8333 30.5,33.1667 30.5,43.5C 28.1667,43.5 25.8333,43.5 23.5,43.5C 23.5,37.5 23.5,31.5 23.5,25.5C 19.1667,25.5 14.8333,25.5 10.5,25.5C 10.5,18.1667 10.5,10.8333 10.5,3.5C 14.2568,3.07083 17.7568,3.73749 21,5.5C 21.3076,4.69194 21.8076,4.02527 22.5,3.5C 23.8333,7.5 25.1667,7.5 26.5,3.5C 28.0052,6.52204 29.3385,9.52204 30.5,12.5 Z"/></g>
<g><path style="opacity:1" fill="#145089" d="M 30.5,12.5 C 31.1667,12.5 31.8333,12.5 32.5,12.5C 32.0441,16.1106 32.7108,19.4439 34.5,22.5C 31.8333,23.8333 31.8333,25.1667 34.5,26.5C 31.8333,27.8333 31.8333,29.1667 34.5,30.5C 31.8333,31.8333 31.8333,33.1667 34.5,34.5C 31.8333,35.8333 31.8333,37.1667 34.5,38.5C 33.8333,39.1667 33.1667,39.8333 32.5,40.5C 33.6119,41.2652 34.2786,42.2652 34.5,43.5C 33.1667,43.5 31.8333,43.5 30.5,43.5C 30.5,33.1667 30.5,22.8333 30.5,12.5 Z"/></g>
<g><path style="opacity:0.994" fill="#156eb2" d="M 32.5,12.5 C 35.5,12.5 38.5,12.5 41.5,12.5C 41.5,22.8333 41.5,33.1667 41.5,43.5C 39.1667,43.5 36.8333,43.5 34.5,43.5C 34.2786,42.2652 33.6119,41.2652 32.5,40.5C 33.1667,39.8333 33.8333,39.1667 34.5,38.5C 31.8333,37.1667 31.8333,35.8333 34.5,34.5C 31.8333,33.1667 31.8333,31.8333 34.5,30.5C 31.8333,29.1667 31.8333,27.8333 34.5,26.5C 31.8333,25.1667 31.8333,23.8333 34.5,22.5C 32.7108,19.4439 32.0441,16.1106 32.5,12.5 Z"/></g>
<g><path style="opacity:1" fill="#edb532" d="M 10.5,25.5 C 14.8333,25.5 19.1667,25.5 23.5,25.5C 23.5,31.5 23.5,37.5 23.5,43.5C 17.5,43.5 11.5,43.5 5.5,43.5C 5.5,37.5 5.5,31.5 5.5,25.5C 7.16667,25.5 8.83333,25.5 10.5,25.5 Z"/></g>
</svg>
