<?xml version="1.0" encoding="UTF-8"?>
<!DOCTYPE svg PUBLIC "-//W3C//DTD SVG 1.1//EN" "http://www.w3.org/Graphics/SVG/1.1/DTD/svg11.dtd">
<svg xmlns="http://www.w3.org/2000/svg" version="1.1" width="48px" height="48px" style="shape-rendering:geometricPrecision; text-rendering:geometricPrecision; image-rendering:optimizeQuality; fill-rule:evenodd; clip-rule:evenodd" xmlns:xlink="http://www.w3.org/1999/xlink">
<g><path style="opacity:0.938" fill="#cc7c25" d="M 37.5,31.5 C 37.5848,28.3511 36.5848,25.6845 34.5,23.5C 31.9895,16.9899 27.3229,12.9899 20.5,11.5C 18.4816,10.0674 16.8149,10.4008 15.5,12.5C 13.004,4.91931 15.6707,2.41931 23.5,5C 35.5107,9.88087 42.0107,18.7142 43,31.5C 41.1722,32.7525 39.3388,32.7525 37.5,31.5 Z"/></g>
<g><path style="opacity:1" fill="#e3445c" d="M 20.5,11.5 C 20.0268,15.6383 17.6935,17.6383 13.5,17.5C 13.7959,15.597 14.4625,13.9303 15.5,12.5C 16.8149,10.4008 18.4816,10.0674 20.5,11.5 Z"/></g>
<g><path style="opacity:0.991" fill="#f9c609" d="M 20.5,11.5 C 27.3229,12.9899 31.9895,16.9899 34.5,23.5C 34.5,24.5 34.5,25.5 34.5,26.5C 31.8333,26.5 29.1667,26.5 26.5,26.5C 29.6718,22.2002 28.6718,19.2002 23.5,17.5C 18.3282,19.2002 17.3282,22.2002 20.5,26.5C 19.1667,26.5 17.8333,26.5 16.5,26.5C 17.1089,23.1216 15.7756,21.1216 12.5,20.5C 12.5569,19.391 12.8902,18.391 13.5,17.5C 17.6935,17.6383 20.0268,15.6383 20.5,11.5 Z"/></g>
<g><path style="opacity:1" fill="#d43153" d="M 26.5,26.5 C 24.5,27.8333 22.5,27.8333 20.5,26.5C 17.3282,22.2002 18.3282,19.2002 23.5,17.5C 28.6718,19.2002 29.6718,22.2002 26.5,26.5 Z"/></g>
<g><path style="opacity:1" fill="#de3e57" d="M 12.5,20.5 C 15.7756,21.1216 17.1089,23.1216 16.5,26.5C 15.3734,27.1217 14.3734,27.955 13.5,29C 11.9343,29.765 10.6009,29.5983 9.5,28.5C 9.98023,25.5568 10.9802,22.8902 12.5,20.5 Z"/></g>
<g><path style="opacity:1" fill="#f6ba07" d="M 34.5,23.5 C 36.5848,25.6845 37.5848,28.3511 37.5,31.5C 36.8333,31.5 36.1667,31.5 35.5,31.5C 32.7393,26.68 29.5726,26.3466 26,30.5C 25.3603,32.265 25.5269,33.9317 26.5,35.5C 25.391,35.5569 24.391,35.8902 23.5,36.5C 23.0369,32.1974 20.7035,30.3641 16.5,31C 13.9201,32.4814 13.0868,34.648 14,37.5C 14.6708,38.2524 15.5041,38.5858 16.5,38.5C 15.0697,39.5375 13.403,40.2041 11.5,40.5C 11.851,37.1884 10.5177,34.855 7.5,33.5C 7.40206,31.4471 8.06873,29.7804 9.5,28.5C 10.6009,29.5983 11.9343,29.765 13.5,29C 14.3734,27.955 15.3734,27.1217 16.5,26.5C 17.8333,26.5 19.1667,26.5 20.5,26.5C 22.5,27.8333 24.5,27.8333 26.5,26.5C 29.1667,26.5 31.8333,26.5 34.5,26.5C 34.5,25.5 34.5,24.5 34.5,23.5 Z"/></g>
<g><path style="opacity:1" fill="#cc3543" d="M 35.5,31.5 C 32.5721,32.8167 29.5721,34.15 26.5,35.5C 25.5269,33.9317 25.3603,32.265 26,30.5C 29.5726,26.3466 32.7393,26.68 35.5,31.5 Z"/></g>
<g><path style="opacity:1" fill="#cf2f4d" d="M 23.5,36.5 C 21.2543,37.4552 18.921,38.1218 16.5,38.5C 15.5041,38.5858 14.6708,38.2524 14,37.5C 13.0868,34.648 13.9201,32.4814 16.5,31C 20.7035,30.3641 23.0369,32.1974 23.5,36.5 Z"/></g>
<g><path style="opacity:1" fill="#d5394d" d="M 7.5,33.5 C 10.5177,34.855 11.851,37.1884 11.5,40.5C 9.48549,41.9238 7.15216,42.5905 4.5,42.5C 4.52751,39.0836 5.52751,36.0836 7.5,33.5 Z"/></g>
</svg>
