<?xml version="1.0" encoding="UTF-8"?>
<!DOCTYPE svg PUBLIC "-//W3C//DTD SVG 1.1//EN" "http://www.w3.org/Graphics/SVG/1.1/DTD/svg11.dtd">
<svg xmlns="http://www.w3.org/2000/svg" version="1.1" width="48px" height="48px" style="shape-rendering:geometricPrecision; text-rendering:geometricPrecision; image-rendering:optimizeQuality; fill-rule:evenodd; clip-rule:evenodd" xmlns:xlink="http://www.w3.org/1999/xlink">
<g><path style="opacity:0.95" fill="#f24b56" d="M 13.5,6.5 C 14.5,6.5 15.5,6.5 16.5,6.5C 16.5858,7.4959 16.2524,8.32924 15.5,9C 11.1118,11.5235 6.77845,14.0235 2.5,16.5C 2.5,15.5 2.5,14.5 2.5,13.5C 3.78873,14.5009 5.12206,14.3342 6.5,13C 8.5,11.6667 10.5,10.3333 12.5,9C 13.2524,8.32924 13.5858,7.4959 13.5,6.5 Z"/></g>
<g><path style="opacity:0.948" fill="#ef414d" d="M 35.5,6.5 C 35.5858,7.4959 35.2524,8.32924 34.5,9C 25.7779,15.0243 16.7779,20.5243 7.5,25.5C 6.16667,24.8333 5.16667,23.8333 4.5,22.5C 9.59708,18.7751 14.9304,15.2751 20.5,12C 21.2524,11.3292 21.5858,10.4959 21.5,9.5C 22.1499,9.80393 22.8165,10.1373 23.5,10.5C 26.9272,7.45331 30.9272,6.11998 35.5,6.5 Z"/></g>
<g><path style="opacity:0.861" fill="#f34d58" d="M 13.5,6.5 C 13.5858,7.4959 13.2524,8.32924 12.5,9C 10.5,10.3333 8.5,11.6667 6.5,13C 5.12206,14.3342 3.78873,14.5009 2.5,13.5C 4.36886,8.39625 8.03553,6.06292 13.5,6.5 Z"/></g>
<g><path style="opacity:0.966" fill="#f14753" d="M 16.5,6.5 C 18.3684,7.26315 20.0351,8.26315 21.5,9.5C 21.5858,10.4959 21.2524,11.3292 20.5,12C 14.9304,15.2751 9.59708,18.7751 4.5,22.5C 2.92606,20.8984 2.25939,18.8984 2.5,16.5C 6.77845,14.0235 11.1118,11.5235 15.5,9C 16.2524,8.32924 16.5858,7.4959 16.5,6.5 Z"/></g>
<g><path style="opacity:1" fill="#ee3d4a" d="M 35.5,6.5 C 36.791,6.26269 37.791,6.59603 38.5,7.5C 38.5858,8.4959 38.2524,9.32924 37.5,10C 28.2647,16.0845 18.9314,21.9179 9.5,27.5C 8.5,27.1667 7.83333,26.5 7.5,25.5C 16.7779,20.5243 25.7779,15.0243 34.5,9C 35.2524,8.32924 35.5858,7.4959 35.5,6.5 Z"/></g>
<g><path style="opacity:0.974" fill="#ec3946" d="M 38.5,7.5 C 40.4044,7.73758 41.7377,8.73758 42.5,10.5C 32.3058,17.0954 21.9724,23.4287 11.5,29.5C 10.5,29.1667 9.83333,28.5 9.5,27.5C 18.9314,21.9179 28.2647,16.0845 37.5,10C 38.2524,9.32924 38.5858,8.4959 38.5,7.5 Z"/></g>
<g><path style="opacity:0.979" fill="#eb3341" d="M 42.5,10.5 C 43.6737,11.5137 44.3404,12.847 44.5,14.5C 40.5805,16.7191 36.5805,18.8858 32.5,21C 27.1494,25.6674 21.4827,29.834 15.5,33.5C 13.8333,32.5 12.5,31.1667 11.5,29.5C 21.9724,23.4287 32.3058,17.0954 42.5,10.5 Z"/></g>
<g><path style="opacity:0.986" fill="#e92e3c" d="M 44.5,14.5 C 44.5,15.8333 44.5,17.1667 44.5,18.5C 35.3314,23.9166 26.3314,29.5833 17.5,35.5C 16.5,35.1667 15.8333,34.5 15.5,33.5C 21.4827,29.834 27.1494,25.6674 32.5,21C 36.5805,18.8858 40.5805,16.7191 44.5,14.5 Z"/></g>
<g><path style="opacity:1" fill="#e72939" d="M 44.5,18.5 C 44.2503,20.674 43.2503,22.3406 41.5,23.5C 33.9266,26.2448 27.26,30.4114 21.5,36C 20.552,36.4828 19.552,36.6495 18.5,36.5C 17.8333,36.5 17.5,36.1667 17.5,35.5C 26.3314,29.5833 35.3314,23.9166 44.5,18.5 Z"/></g>
<g><path style="opacity:0.933" fill="#e72736" d="M 41.5,23.5 C 39.8333,25.8333 37.8333,27.8333 35.5,29.5C 30.362,32.2371 25.362,35.2371 20.5,38.5C 19.5,38.1667 18.8333,37.5 18.5,36.5C 19.552,36.6495 20.552,36.4828 21.5,36C 27.26,30.4114 33.9266,26.2448 41.5,23.5 Z"/></g>
<g><path style="opacity:0.889" fill="#e52332" d="M 35.5,29.5 C 32.3707,33.1309 29.0374,36.6309 25.5,40C 23.3258,40.8769 21.6591,40.3769 20.5,38.5C 25.362,35.2371 30.362,32.2371 35.5,29.5 Z"/></g>
</svg>
