<?xml version="1.0" encoding="UTF-8"?>
<!DOCTYPE svg PUBLIC "-//W3C//DTD SVG 1.1//EN" "http://www.w3.org/Graphics/SVG/1.1/DTD/svg11.dtd">
<svg xmlns="http://www.w3.org/2000/svg" version="1.1" width="129px" height="128px" style="shape-rendering:geometricPrecision; text-rendering:geometricPrecision; image-rendering:optimizeQuality; fill-rule:evenodd; clip-rule:evenodd" xmlns:xlink="http://www.w3.org/1999/xlink">
<g><path style="opacity:1" fill="#30cc71" d="M 45.5,1.5 C 57.4851,12.5472 57.1518,23.2138 44.5,33.5C 45.2745,35.3964 46.2745,37.063 47.5,38.5C 44.9093,39.9913 43.9093,42.3247 44.5,45.5C 45.5,45.5 46.5,45.5 47.5,45.5C 48.0241,50.1577 50.0241,53.8243 53.5,56.5C 49.9468,58.0402 48.7801,60.7069 50,64.5C 52.794,65.8463 55.294,65.3463 57.5,63C 64.1051,61.9107 70.4384,62.744 76.5,65.5C 78.4607,64.9206 79.4607,63.5872 79.5,61.5C 78.6772,59.4227 77.3439,57.756 75.5,56.5C 76.7498,56.4226 77.5831,55.756 78,54.5C 79.7275,51.3821 80.5608,48.0487 80.5,44.5C 81.7079,45.2341 83.0413,45.5674 84.5,45.5C 84.7267,42.562 83.7267,40.2287 81.5,38.5C 83.4411,36.9894 83.9411,34.9894 83,32.5C 71.6737,21.9523 71.8403,11.619 83.5,1.5C 99.0525,-3.09372 107.886,2.57295 110,18.5C 120.241,28.0864 126.407,39.7531 128.5,53.5C 128.5,60.5 128.5,67.5 128.5,74.5C 127.596,75.209 127.263,76.209 127.5,77.5C 122.163,79.1681 116.829,80.8348 111.5,82.5C 106.057,83.8608 100.724,85.1941 95.5,86.5C 93.1667,86.5 90.8333,86.5 88.5,86.5C 86.071,77.1129 80.071,73.6129 70.5,76C 67.9242,76.7822 65.9242,78.2822 64.5,80.5C 57.6092,74.3086 50.4426,73.9753 43,79.5C 41.0972,81.441 40.2639,83.7743 40.5,86.5C 38.1667,86.5 35.8333,86.5 33.5,86.5C 28.2059,85.4098 22.8726,84.0765 17.5,82.5C 12.1673,80.8338 6.83398,79.1671 1.5,77.5C 0.949353,73.0268 0.282687,68.6934 -0.5,64.5C -0.5,62.5 -0.5,60.5 -0.5,58.5C 1.11683,42.5964 7.61683,28.9297 19,17.5C 21.5626,2.14186 30.3959,-3.19148 45.5,1.5 Z"/></g>
<g><path style="opacity:1" fill="#2fd776" d="M 53.5,-0.5 C 60.8333,-0.5 68.1667,-0.5 75.5,-0.5C 78.003,0.370512 80.6697,1.03718 83.5,1.5C 71.8403,11.619 71.6737,21.9523 83,32.5C 83.9411,34.9894 83.4411,36.9894 81.5,38.5C 76.215,35.1298 70.3817,33.7964 64,34.5C 57.9073,33.7616 52.4073,35.0949 47.5,38.5C 46.2745,37.063 45.2745,35.3964 44.5,33.5C 57.1518,23.2138 57.4851,12.5472 45.5,1.5C 48.3303,1.03718 50.997,0.370512 53.5,-0.5 Z"/></g>
<g><path style="opacity:1" fill="#f3f8f5" d="M 32.5,5.5 C 43.6891,4.52978 49.1891,9.52978 49,20.5C 45.7803,27.6935 40.2803,30.5268 32.5,29C 21.8527,21.0373 21.8527,13.2039 32.5,5.5 Z"/></g>
<g><path style="opacity:1" fill="#f5f8f6" d="M 86.5,5.5 C 99.3202,4.15271 104.82,9.81938 103,22.5C 99.4337,28.3638 94.267,30.5305 87.5,29C 77.2745,21.588 76.9412,13.7546 86.5,5.5 Z"/></g>
<g><path style="opacity:1" fill="#5e5e5e" d="M 34.5,10.5 C 43.2742,9.10778 46.7742,12.7745 45,21.5C 40.6667,25.5 36.3333,25.5 32,21.5C 29.5841,17.0776 30.4175,13.4109 34.5,10.5 Z"/></g>
<g><path style="opacity:1" fill="#5f5f5f" d="M 85.5,10.5 C 94.823,8.65814 98.6563,12.3248 97,21.5C 92.0419,25.7148 87.3752,25.3815 83,20.5C 82.3333,18.5 82.3333,16.5 83,14.5C 84.4813,13.5291 85.3146,12.1958 85.5,10.5 Z"/></g>
<g><path style="opacity:1" fill="#28b563" d="M 81.5,38.5 C 83.7267,40.2287 84.7267,42.562 84.5,45.5C 83.0413,45.5674 81.7079,45.2341 80.5,44.5C 71.9531,40.3141 62.9531,39.4808 53.5,42C 50.9746,42.4238 48.9746,43.5905 47.5,45.5C 46.5,45.5 45.5,45.5 44.5,45.5C 43.9093,42.3247 44.9093,39.9913 47.5,38.5C 52.4073,35.0949 57.9073,33.7616 64,34.5C 70.3817,33.7964 76.215,35.1298 81.5,38.5 Z"/></g>
<g><path style="opacity:1" fill="#2fd675" d="M 80.5,44.5 C 80.5608,48.0487 79.7275,51.3821 78,54.5C 77.5831,55.756 76.7498,56.4226 75.5,56.5C 68.1667,53.8333 60.8333,53.8333 53.5,56.5C 50.0241,53.8243 48.0241,50.1577 47.5,45.5C 48.9746,43.5905 50.9746,42.4238 53.5,42C 62.9531,39.4808 71.9531,40.3141 80.5,44.5 Z"/></g>
<g><path style="opacity:1" fill="#28b463" d="M 75.5,56.5 C 77.3439,57.756 78.6772,59.4227 79.5,61.5C 79.4607,63.5872 78.4607,64.9206 76.5,65.5C 70.4384,62.744 64.1051,61.9107 57.5,63C 55.294,65.3463 52.794,65.8463 50,64.5C 48.7801,60.7069 49.9468,58.0402 53.5,56.5C 60.8333,53.8333 68.1667,53.8333 75.5,56.5 Z"/></g>
<g><path style="opacity:1" fill="#eacdb6" d="M 95.5,86.5 C 96.5596,90.1796 97.7262,93.8463 99,97.5C 100.062,98.8993 101.395,99.8993 103,100.5C 107.072,95.132 109.906,89.132 111.5,82.5C 116.829,80.8348 122.163,79.1681 127.5,77.5C 120.331,104.337 103.331,121.004 76.5,127.5C 68.1667,127.5 59.8333,127.5 51.5,127.5C 25.1997,120.533 8.53302,103.866 1.5,77.5C 6.83398,79.1671 12.1673,80.8338 17.5,82.5C 18.9728,88.4165 21.1395,94.0832 24,99.5C 25.9376,100.86 27.6043,100.527 29,98.5C 31.003,94.654 32.503,90.654 33.5,86.5C 35.8333,86.5 38.1667,86.5 40.5,86.5C 40.2639,83.7743 41.0972,81.441 43,79.5C 50.4426,73.9753 57.6092,74.3086 64.5,80.5C 65.9242,78.2822 67.9242,76.7822 70.5,76C 80.071,73.6129 86.071,77.1129 88.5,86.5C 90.8333,86.5 93.1667,86.5 95.5,86.5 Z"/></g>
<g><path style="opacity:1" fill="#b39c8b" d="M 48.5,81.5 C 51.4822,81.1044 54.1489,81.7711 56.5,83.5C 59.8876,89.2857 58.2209,91.7857 51.5,91C 48.0704,88.4684 47.0704,85.3017 48.5,81.5 Z"/></g>
<g><path style="opacity:1" fill="#b29b8a" d="M 74.5,81.5 C 80.5906,81.2861 82.0906,83.9527 79,89.5C 72.9486,93.1074 70.2819,91.4408 71,84.5C 72.1451,83.3636 73.3117,82.3636 74.5,81.5 Z"/></g>
<g><path style="opacity:1" fill="#f9f6ef" d="M 17.5,82.5 C 22.8726,84.0765 28.2059,85.4098 33.5,86.5C 32.503,90.654 31.003,94.654 29,98.5C 27.6043,100.527 25.9376,100.86 24,99.5C 21.1395,94.0832 18.9728,88.4165 17.5,82.5 Z"/></g>
<g><path style="opacity:1" fill="#f9f6ef" d="M 111.5,82.5 C 109.906,89.132 107.072,95.132 103,100.5C 101.395,99.8993 100.062,98.8993 99,97.5C 97.7262,93.8463 96.5596,90.1796 95.5,86.5C 100.724,85.1941 106.057,83.8608 111.5,82.5 Z"/></g>
</svg>
