<?xml version="1.0" encoding="UTF-8"?>
<!DOCTYPE svg PUBLIC "-//W3C//DTD SVG 1.1//EN" "http://www.w3.org/Graphics/SVG/1.1/DTD/svg11.dtd">
<svg xmlns="http://www.w3.org/2000/svg" version="1.1" width="42px" height="60px" style="shape-rendering:geometricPrecision; text-rendering:geometricPrecision; image-rendering:optimizeQuality; fill-rule:evenodd; clip-rule:evenodd" xmlns:xlink="http://www.w3.org/1999/xlink">
<g><path style="opacity:1" fill="#359fe5" d="M 17.5,-0.5 C 18.8333,-0.5 20.1667,-0.5 21.5,-0.5C 23.7824,3.09115 27.1157,4.42449 31.5,3.5C 31.3367,5.85684 31.5034,8.19018 32,10.5C 33.6851,12.0175 35.1851,13.6841 36.5,15.5C 35.1455,17.5212 33.4788,19.1879 31.5,20.5C 31.2407,16.9319 29.2407,15.5985 25.5,16.5C 25.5449,11.8781 23.2116,9.54475 18.5,9.5C 19.0306,6.11243 17.6973,4.11243 14.5,3.5C 15.5,2.16667 16.5,0.833333 17.5,-0.5 Z"/></g>
<g><path style="opacity:1" fill="#f6fafe" d="M 18.5,9.5 C 23.2116,9.54475 25.5449,11.8781 25.5,16.5C 24.1568,21.0779 21.1568,22.5779 16.5,21C 12.1956,16.3518 12.8622,12.5185 18.5,9.5 Z"/></g>
<g><path style="opacity:1" fill="#39a4eb" d="M 14.5,3.5 C 17.6973,4.11243 19.0306,6.11243 18.5,9.5C 12.8622,12.5185 12.1956,16.3518 16.5,21C 21.1568,22.5779 24.1568,21.0779 25.5,16.5C 29.2407,15.5985 31.2407,16.9319 31.5,20.5C 31.5,23.1667 31.5,25.8333 31.5,28.5C 28.8127,28.3359 26.146,28.5026 23.5,29C 22.944,29.3826 22.6107,29.8826 22.5,30.5C 20.2492,31.8647 18.2492,31.5314 16.5,29.5C 13.9205,28.7724 11.2538,28.2724 8.5,28C 8.34998,23.8721 6.84998,20.3721 4,17.5C 3.07328,14.4038 4.07328,12.0704 7,10.5C 7.49665,8.19018 7.66331,5.85684 7.5,3.5C 9.83333,3.5 12.1667,3.5 14.5,3.5 Z"/></g>
<g><path style="opacity:0.987" fill="#7fbd1e" d="M 16.5,44.5 C 17.7713,46.9339 19.7713,48.4339 22.5,49C 22,49.5 21.5,50 21,50.5C 20.502,53.4816 20.3354,56.4816 20.5,59.5C 17.1667,59.5 13.8333,59.5 10.5,59.5C 7.17929,54.8482 3.51262,50.5149 -0.5,46.5C -0.5,46.1667 -0.5,45.8333 -0.5,45.5C 4.89831,41.8769 10.565,41.5436 16.5,44.5 Z"/></g>
<g><path style="opacity:0.998" fill="#76af1c" d="M 16.5,29.5 C 18.2492,31.5314 20.2492,31.8647 22.5,30.5C 22.1115,35.6278 22.6115,40.6278 24,45.5C 29.9671,41.6258 35.8004,41.6258 41.5,45.5C 41.5,45.8333 41.5,46.1667 41.5,46.5C 37.6061,50.6077 33.9394,54.941 30.5,59.5C 27.1667,59.5 23.8333,59.5 20.5,59.5C 20.3354,56.4816 20.502,53.4816 21,50.5C 21.5,50 22,49.5 22.5,49C 19.7713,48.4339 17.7713,46.9339 16.5,44.5C 16.5,39.5 16.5,34.5 16.5,29.5 Z"/></g>
</svg>
