<?xml version="1.0" encoding="UTF-8"?>
<!DOCTYPE svg PUBLIC "-//W3C//DTD SVG 1.1//EN" "http://www.w3.org/Graphics/SVG/1.1/DTD/svg11.dtd">
<svg xmlns="http://www.w3.org/2000/svg" version="1.1" width="42px" height="50px" style="shape-rendering:geometricPrecision; text-rendering:geometricPrecision; image-rendering:optimizeQuality; fill-rule:evenodd; clip-rule:evenodd" xmlns:xlink="http://www.w3.org/1999/xlink">
<g><path style="opacity:0.986" fill="#e04b38" d="M 18.5,-0.5 C 19.8333,-0.5 21.1667,-0.5 22.5,-0.5C 23.5,0.833333 24.5,2.16667 25.5,3.5C 26.1408,4.48224 26.8075,5.48224 27.5,6.5C 26.4756,7.85181 25.4756,9.18514 24.5,10.5C 21.8333,10.5 19.1667,10.5 16.5,10.5C 15.5244,9.18514 14.5244,7.85181 13.5,6.5C 14.1925,5.48224 14.8592,4.48224 15.5,3.5C 16.5,2.16667 17.5,0.833333 18.5,-0.5 Z"/></g>
<g><path style="opacity:0.994" fill="#ac372a" d="M 15.5,3.5 C 14.8592,4.48224 14.1925,5.48224 13.5,6.5C 14.5244,7.85181 15.5244,9.18514 16.5,10.5C 16.1667,11.1667 15.8333,11.8333 15.5,12.5C 14.3744,11.2858 13.0411,10.2858 11.5,9.5C 10.1508,9.84572 8.81748,10.179 7.5,10.5C 7.5,8.16667 7.5,5.83333 7.5,3.5C 10.1667,3.5 12.8333,3.5 15.5,3.5 Z"/></g>
<g><path style="opacity:0.919" fill="#ad372b" d="M 25.5,3.5 C 27.8333,3.5 30.1667,3.5 32.5,3.5C 32.5,5.83333 32.5,8.16667 32.5,10.5C 31.5837,10.0183 30.5837,9.68501 29.5,9.5C 27.9589,10.2858 26.6256,11.2858 25.5,12.5C 25.1667,11.8333 24.8333,11.1667 24.5,10.5C 25.4756,9.18514 26.4756,7.85181 27.5,6.5C 26.8075,5.48224 26.1408,4.48224 25.5,3.5 Z"/></g>
<g><path style="opacity:0.981" fill="#de4838" d="M 15.5,12.5 C 14.1667,14.8333 14.1667,17.1667 15.5,19.5C 13.1177,22.8618 10.451,23.1951 7.5,20.5C 5.67742,19.5067 4.34408,18.0067 3.5,16C 4.65019,14.019 5.98352,12.1857 7.5,10.5C 8.81748,10.179 10.1508,9.84572 11.5,9.5C 13.0411,10.2858 14.3744,11.2858 15.5,12.5 Z"/></g>
<g><path style="opacity:0.975" fill="#df4838" d="M 32.5,10.5 C 37.7195,14.0268 37.7195,17.6935 32.5,21.5C 31.7354,21.9234 30.9021,22.2568 30,22.5C 28.3566,21.6854 26.8566,20.6854 25.5,19.5C 26.8333,17.1667 26.8333,14.8333 25.5,12.5C 26.6256,11.2858 27.9589,10.2858 29.5,9.5C 30.5837,9.68501 31.5837,10.0183 32.5,10.5 Z"/></g>
<g><path style="opacity:1" fill="#fdc702" d="M 16.5,10.5 C 19.1667,10.5 21.8333,10.5 24.5,10.5C 24.8333,11.1667 25.1667,11.8333 25.5,12.5C 26.8333,14.8333 26.8333,17.1667 25.5,19.5C 24.8333,19.5 24.5,19.8333 24.5,20.5C 21.8333,21.8333 19.1667,21.8333 16.5,20.5C 16.5,19.8333 16.1667,19.5 15.5,19.5C 14.1667,17.1667 14.1667,14.8333 15.5,12.5C 15.8333,11.8333 16.1667,11.1667 16.5,10.5 Z"/></g>
<g><path style="opacity:1" fill="#aa382a" d="M 15.5,19.5 C 16.1667,19.5 16.5,19.8333 16.5,20.5C 15.3146,21.8566 14.3146,23.3566 13.5,25C 13.7432,25.9021 14.0766,26.7354 14.5,27.5C 8.5,28.8333 6.16667,26.5 7.5,20.5C 10.451,23.1951 13.1177,22.8618 15.5,19.5 Z"/></g>
<g><path style="opacity:0.92" fill="#ab372a" d="M 25.5,19.5 C 26.8566,20.6854 28.3566,21.6854 30,22.5C 30.9021,22.2568 31.7354,21.9234 32.5,21.5C 32.5,23.5 32.5,25.5 32.5,27.5C 30.5,27.5 28.5,27.5 26.5,27.5C 26.9234,26.7354 27.2568,25.9021 27.5,25C 26.4451,23.4928 25.4451,21.9928 24.5,20.5C 24.5,19.8333 24.8333,19.5 25.5,19.5 Z"/></g>
<g><path style="opacity:0.991" fill="#dd4a37" d="M 16.5,20.5 C 19.1667,21.8333 21.8333,21.8333 24.5,20.5C 25.4451,21.9928 26.4451,23.4928 27.5,25C 27.2568,25.9021 26.9234,26.7354 26.5,27.5C 25.1667,28.8333 23.8333,30.1667 22.5,31.5C 20.1417,31.7475 18.1417,31.0808 16.5,29.5C 15.8333,28.8333 15.1667,28.1667 14.5,27.5C 14.0766,26.7354 13.7432,25.9021 13.5,25C 14.3146,23.3566 15.3146,21.8566 16.5,20.5 Z"/></g>
<g><path style="opacity:0.987" fill="#7fbd1e" d="M 16.5,34.5 C 17.7713,36.9339 19.7713,38.4339 22.5,39C 22,39.5 21.5,40 21,40.5C 20.502,43.4816 20.3354,46.4816 20.5,49.5C 17.1667,49.5 13.8333,49.5 10.5,49.5C 7.17929,44.8482 3.51262,40.5149 -0.5,36.5C -0.5,36.1667 -0.5,35.8333 -0.5,35.5C 4.89831,31.8769 10.565,31.5436 16.5,34.5 Z"/></g>
<g><path style="opacity:0.998" fill="#77b01b" d="M 16.5,29.5 C 18.1417,31.0808 20.1417,31.7475 22.5,31.5C 23.0899,32.766 23.5899,34.0993 24,35.5C 29.9671,31.6258 35.8004,31.6258 41.5,35.5C 41.5,35.8333 41.5,36.1667 41.5,36.5C 37.6061,40.6077 33.9394,44.941 30.5,49.5C 27.1667,49.5 23.8333,49.5 20.5,49.5C 20.3354,46.4816 20.502,43.4816 21,40.5C 21.5,40 22,39.5 22.5,39C 19.7713,38.4339 17.7713,36.9339 16.5,34.5C 16.5,32.8333 16.5,31.1667 16.5,29.5 Z"/></g>
</svg>
