<?xml version="1.0" encoding="UTF-8"?>
<!DOCTYPE svg PUBLIC "-//W3C//DTD SVG 1.1//EN" "http://www.w3.org/Graphics/SVG/1.1/DTD/svg11.dtd">
<svg xmlns="http://www.w3.org/2000/svg" version="1.1" width="48px" height="48px" style="shape-rendering:geometricPrecision; text-rendering:geometricPrecision; image-rendering:optimizeQuality; fill-rule:evenodd; clip-rule:evenodd" xmlns:xlink="http://www.w3.org/1999/xlink">
<g><path style="opacity:0.886" fill="#ffb956" d="M 23.5,3.5 C 29.1581,2.67937 30.8248,4.84604 28.5,10C 22.741,11.1387 21.0744,8.972 23.5,3.5 Z"/></g>
<g><path style="opacity:0.875" fill="#ffb956" d="M 15.5,11.5 C 15.5,12.8333 15.5,14.1667 15.5,15.5C 12.8127,15.6641 10.146,15.4974 7.5,15C 6.02674,14.2904 5.36007,13.1238 5.5,11.5C 8.83333,11.5 12.1667,11.5 15.5,11.5 Z"/></g>
<g><path style="opacity:1" fill="#6cbf8a" d="M 15.5,11.5 C 22.3531,10.4384 28.0198,12.4384 32.5,17.5C 32.1667,18.8333 31.8333,20.1667 31.5,21.5C 27.8913,20.7932 25.5579,22.4598 24.5,26.5C 21.5,25.1667 18.5,23.8333 15.5,22.5C 15.5861,20.323 16.2528,18.323 17.5,16.5C 17.0431,15.7025 16.3764,15.3691 15.5,15.5C 15.5,14.1667 15.5,12.8333 15.5,11.5 Z"/></g>
<g><path style="opacity:0.816" fill="#fdba56" d="M 31.5,21.5 C 31.8333,20.1667 32.1667,18.8333 32.5,17.5C 33.9616,16.5423 35.2949,15.3756 36.5,14C 37.7932,13.51 39.1266,13.3433 40.5,13.5C 39.4144,18.2492 36.4144,20.9159 31.5,21.5 Z"/></g>
<g><path style="opacity:1" fill="#fd7e4d" d="M 15.5,22.5 C 18.5,23.8333 21.5,25.1667 24.5,26.5C 23.8698,28.7496 22.8698,30.7496 21.5,32.5C 19.847,32.3404 18.5137,31.6737 17.5,30.5C 17.1667,29.1667 16.8333,29.1667 16.5,30.5C 15.1667,29.8333 13.8333,29.1667 12.5,28.5C 12.9925,26.1815 13.9925,24.1815 15.5,22.5 Z"/></g>
<g><path style="opacity:0.771" fill="#ffba56" d="M 12.5,28.5 C 13.8333,29.1667 15.1667,29.8333 16.5,30.5C 16.8333,30.5 17.1667,30.5 17.5,30.5C 18.5137,31.6737 19.847,32.3404 21.5,32.5C 20.4533,35.5963 19.12,38.5963 17.5,41.5C 16.3112,42.4287 14.9778,42.762 13.5,42.5C 13.9054,39.0135 14.9054,35.6801 16.5,32.5C 15.1125,32.1928 13.4458,32.1928 11.5,32.5C 11.4326,31.0413 11.7659,29.7079 12.5,28.5 Z"/></g>
<g><path style="opacity:0.942" fill="#445963" d="M 25.5,36.5 C 31.1581,35.6794 32.8248,37.846 30.5,43C 24.741,44.1387 23.0744,41.972 25.5,36.5 Z"/></g>
</svg>
