<?xml version="1.0" encoding="UTF-8"?>
<!DOCTYPE svg PUBLIC "-//W3C//DTD SVG 1.1//EN" "http://www.w3.org/Graphics/SVG/1.1/DTD/svg11.dtd">
<svg xmlns="http://www.w3.org/2000/svg" version="1.1" width="48px" height="48px" style="shape-rendering:geometricPrecision; text-rendering:geometricPrecision; image-rendering:optimizeQuality; fill-rule:evenodd; clip-rule:evenodd" xmlns:xlink="http://www.w3.org/1999/xlink">
<g><path style="opacity:0.958" fill="#0c77d4" d="M 14.5,7.5 C 12.3926,8.46822 10.0593,8.80155 7.5,8.5C 8.1522,7.27493 9.31887,6.60826 11,6.5C 12.3847,6.51428 13.5514,6.84761 14.5,7.5 Z"/></g>
<g><path style="opacity:0.958" fill="#0976d3" d="M 39.5,8.5 C 38.1667,8.5 36.8333,8.5 35.5,8.5C 34.209,8.73731 33.209,8.40397 32.5,7.5C 33.4486,6.84761 34.6153,6.51428 36,6.5C 37.6811,6.60826 38.8478,7.27493 39.5,8.5 Z"/></g>
<g><path style="opacity:0.985" fill="#818e9a" d="M 14.5,7.5 C 18.1667,7.5 21.8333,7.5 25.5,7.5C 24.057,13.6104 20.3903,17.2771 14.5,18.5C 14.7373,17.209 14.404,16.209 13.5,15.5C 12.5,15.5 11.5,15.5 10.5,15.5C 10.5,16.8333 10.5,18.1667 10.5,19.5C 9.16667,19.5 7.83333,19.5 6.5,19.5C 5.76961,23.2802 3.76961,26.2802 0.5,28.5C 0.368601,22.7787 0.868601,17.112 2,11.5C 3.48765,9.83997 5.32099,8.83997 7.5,8.5C 10.0593,8.80155 12.3926,8.46822 14.5,7.5 Z"/></g>
<g><path style="opacity:0.98" fill="#7a8691" d="M 25.5,7.5 C 27.8333,7.5 30.1667,7.5 32.5,7.5C 33.209,8.40397 34.209,8.73731 35.5,8.5C 34.0906,12.3163 32.424,15.9829 30.5,19.5C 28.6266,23.391 26.2933,27.0576 23.5,30.5C 21.712,30.2148 20.0453,30.5481 18.5,31.5C 16.4572,36.3566 12.7905,38.3566 7.5,37.5C 9.61577,34.2111 11.9491,31.0444 14.5,28C 12.9419,27.79 11.6085,27.29 10.5,26.5C 11.5,26.5 12.5,26.5 13.5,26.5C 13.5,25.1667 13.5,23.8333 13.5,22.5C 14.8333,22.5 16.1667,22.5 17.5,22.5C 17.5,21.5 17.5,20.5 17.5,19.5C 16.1667,19.5 14.8333,19.5 13.5,19.5C 13.5,18.1667 13.5,16.8333 13.5,15.5C 14.404,16.209 14.7373,17.209 14.5,18.5C 20.3903,17.2771 24.057,13.6104 25.5,7.5 Z"/></g>
<g><path style="opacity:1" fill="#fafafb" d="M 13.5,15.5 C 13.5,16.8333 13.5,18.1667 13.5,19.5C 14.8333,19.5 16.1667,19.5 17.5,19.5C 17.5,20.5 17.5,21.5 17.5,22.5C 16.1667,22.5 14.8333,22.5 13.5,22.5C 13.5,23.8333 13.5,25.1667 13.5,26.5C 12.5,26.5 11.5,26.5 10.5,26.5C 10.5,25.1667 10.5,23.8333 10.5,22.5C 9.16667,22.5 7.83333,22.5 6.5,22.5C 6.5,21.5 6.5,20.5 6.5,19.5C 7.83333,19.5 9.16667,19.5 10.5,19.5C 10.5,18.1667 10.5,16.8333 10.5,15.5C 11.5,15.5 12.5,15.5 13.5,15.5 Z"/></g>
<g><path style="opacity:0.963" fill="#6f7b85" d="M 35.5,8.5 C 36.8333,8.5 38.1667,8.5 39.5,8.5C 41.679,8.83997 43.5123,9.83997 45,11.5C 46.8294,19.2214 46.8294,26.888 45,34.5C 41.6621,37.3181 37.8288,38.1515 33.5,37C 30.9673,35.9667 29.3006,34.1334 28.5,31.5C 26.9547,30.5481 25.288,30.2148 23.5,30.5C 26.2933,27.0576 28.6266,23.391 30.5,19.5C 32.424,15.9829 34.0906,12.3163 35.5,8.5 Z"/></g>
<g><path style="opacity:1" fill="#2ca9e2" d="M 39.5,18.5 C 42.8606,19.2032 43.1939,20.5365 40.5,22.5C 38.3576,21.5629 38.0243,20.2296 39.5,18.5 Z"/></g>
<g><path style="opacity:1" fill="#eeb70e" d="M 30.5,19.5 C 32.2296,18.0243 33.5629,18.3576 34.5,20.5C 32.5365,23.1939 31.2032,22.8606 30.5,19.5 Z"/></g>
<g><path style="opacity:1" fill="#f25788" d="M 35.5,14.5 C 38.8606,15.2032 39.1939,16.5365 36.5,18.5C 34.3576,17.5629 34.0243,16.2296 35.5,14.5 Z"/></g>
<g><path style="opacity:0.964" fill="#7e8b96" d="M 6.5,19.5 C 6.5,20.5 6.5,21.5 6.5,22.5C 7.83333,22.5 9.16667,22.5 10.5,22.5C 10.5,23.8333 10.5,25.1667 10.5,26.5C 11.6085,27.29 12.9419,27.79 14.5,28C 11.9491,31.0444 9.61577,34.2111 7.5,37.5C 2.56854,36.5642 0.235205,33.5642 0.5,28.5C 3.76961,26.2802 5.76961,23.2802 6.5,19.5 Z"/></g>
<g><path style="opacity:1" fill="#14b661" d="M 35.5,22.5 C 38.8606,23.2032 39.1939,24.5365 36.5,26.5C 34.3576,25.5629 34.0243,24.2296 35.5,22.5 Z"/></g>
</svg>
