<?xml version="1.0" encoding="UTF-8"?>
<!DOCTYPE svg PUBLIC "-//W3C//DTD SVG 1.1//EN" "http://www.w3.org/Graphics/SVG/1.1/DTD/svg11.dtd">
<svg xmlns="http://www.w3.org/2000/svg" version="1.1" width="40px" height="40px" style="shape-rendering:geometricPrecision; text-rendering:geometricPrecision; image-rendering:optimizeQuality; fill-rule:evenodd; clip-rule:evenodd" xmlns:xlink="http://www.w3.org/1999/xlink">
<g><path style="opacity:0.875" fill="#d86361" d="M 27.5,11.5 C 22.1667,11.5 16.8333,11.5 11.5,11.5C 11.5,10.1667 11.5,8.83333 11.5,7.5C 16.8333,7.5 22.1667,7.5 27.5,7.5C 27.5,8.83333 27.5,10.1667 27.5,11.5 Z"/></g>
<g><path style="opacity:1" fill="#f68f8e" d="M 12.5,8.5 C 17.2137,8.17338 21.8804,8.50671 26.5,9.5C 24.1667,9.83333 21.8333,10.1667 19.5,10.5C 16.7305,10.4714 14.3972,9.80478 12.5,8.5 Z"/></g>
<g><path style="opacity:1" fill="#fdc29a" d="M 11.5,11.5 C 16.8333,11.5 22.1667,11.5 27.5,11.5C 27.5,13.1667 27.5,14.8333 27.5,16.5C 26.5655,17.5676 26.2322,18.901 26.5,20.5C 30.5,20.5 34.5,20.5 38.5,20.5C 38.5,23.8333 38.5,27.1667 38.5,30.5C 25.8333,30.5 13.1667,30.5 0.5,30.5C 0.5,26.5 0.5,22.5 0.5,18.5C 4.5,18.5 8.5,18.5 12.5,18.5C 12.7678,16.901 12.4345,15.5676 11.5,14.5C 11.5,13.5 11.5,12.5 11.5,11.5 Z"/></g>
<g><path style="opacity:1" fill="#b3835b" d="M 19.5,14.5 C 20.6341,16.9664 20.8007,19.633 20,22.5C 19.9326,19.953 19.0993,17.7863 17.5,16C 18.4158,15.7216 19.0825,15.2216 19.5,14.5 Z"/></g>
<g><path style="opacity:0.984" fill="#7a9dce" d="M -0.5,14.5 C 3.5,14.5 7.5,14.5 11.5,14.5C 12.4345,15.5676 12.7678,16.901 12.5,18.5C 8.5,18.5 4.5,18.5 0.5,18.5C 0.166667,18.5 -0.166667,18.5 -0.5,18.5C -0.5,17.1667 -0.5,15.8333 -0.5,14.5 Z"/></g>
<g><path style="opacity:0.984" fill="#87b38a" d="M 27.5,16.5 C 31.5,16.5 35.5,16.5 39.5,16.5C 39.5,17.8333 39.5,19.1667 39.5,20.5C 39.1667,20.5 38.8333,20.5 38.5,20.5C 34.5,20.5 30.5,20.5 26.5,20.5C 26.2322,18.901 26.5655,17.5676 27.5,16.5 Z"/></g>
<g><path style="opacity:0.878" fill="#d09d74" d="M -0.5,18.5 C -0.166667,18.5 0.166667,18.5 0.5,18.5C 0.5,22.5 0.5,26.5 0.5,30.5C 13.1667,30.5 25.8333,30.5 38.5,30.5C 38.5,27.1667 38.5,23.8333 38.5,20.5C 38.8333,20.5 39.1667,20.5 39.5,20.5C 39.5,24.1667 39.5,27.8333 39.5,31.5C 26.1667,31.5 12.8333,31.5 -0.5,31.5C -0.5,27.1667 -0.5,22.8333 -0.5,18.5 Z"/></g>
<g><path style="opacity:1" fill="#c6946c" d="M 31.5,22.5 C 33.0927,21.1328 34.4261,21.4661 35.5,23.5C 35.4307,25.2781 35.0974,27.1114 34.5,29C 29.9986,29.6632 29.6653,29.1632 33.5,27.5C 30.8333,26.1667 30.8333,24.8333 33.5,23.5C 33.0431,22.7025 32.3764,22.3691 31.5,22.5 Z"/></g>
<g><path style="opacity:1" fill="#c08e66" d="M 4.5,21.5 C 7.4947,19.9827 8.66136,20.9827 8,24.5C 4.66758,26.4429 4.83424,27.6095 8.5,28C 6.74117,28.7975 5.0745,28.6309 3.5,27.5C 4.7113,26.1255 5.7113,24.6255 6.5,23C 6.16389,21.9701 5.49722,21.4701 4.5,21.5 Z"/></g>
</svg>
