<?xml version="1.0" encoding="UTF-8"?>
<!DOCTYPE svg PUBLIC "-//W3C//DTD SVG 1.1//EN" "http://www.w3.org/Graphics/SVG/1.1/DTD/svg11.dtd">
<svg xmlns="http://www.w3.org/2000/svg" version="1.1" width="48px" height="48px" style="shape-rendering:geometricPrecision; text-rendering:geometricPrecision; image-rendering:optimizeQuality; fill-rule:evenodd; clip-rule:evenodd" xmlns:xlink="http://www.w3.org/1999/xlink">
<g><path style="opacity:0.985" fill="#ededed" d="M 32.5,7.5 C 30.2821,14.7743 25.6154,16.941 18.5,14C 17.0672,11.8269 15.7339,9.66023 14.5,7.5C 17.9393,1.4233 22.9393,-0.076701 29.5,3C 30.8825,4.27083 31.8825,5.77083 32.5,7.5 Z"/></g>
<g><path style="opacity:0.916" fill="#dadbdc" d="M 14.5,7.5 C 15.7339,9.66023 17.0672,11.8269 18.5,14C 25.6154,16.941 30.2821,14.7743 32.5,7.5C 34.3815,12.265 36.5482,16.9317 39,21.5C 40.1488,24.3926 40.6488,27.3926 40.5,30.5C 39.8333,30.8333 39.1667,31.1667 38.5,31.5C 38.3484,27.8593 36.6818,25.1927 33.5,23.5C 32.145,20.4823 29.8116,19.149 26.5,19.5C 24.5,19.5 22.5,19.5 20.5,19.5C 17.1884,19.149 14.855,20.4823 13.5,23.5C 11.0499,25.6291 9.38326,28.2957 8.5,31.5C 7.83333,31.1667 7.16667,30.8333 6.5,30.5C 6.35123,27.3926 6.85123,24.3926 8,21.5C 10.4518,16.9317 12.6185,12.265 14.5,7.5 Z"/></g>
<g><path style="opacity:1" fill="#4d6675" d="M 20.5,19.5 C 18.4922,21.2676 16.3256,22.9343 14,24.5C 13.6012,24.2716 13.4346,23.9382 13.5,23.5C 14.855,20.4823 17.1884,19.149 20.5,19.5 Z"/></g>
<g><path style="opacity:0.989" fill="#65b4f3" d="M 20.5,19.5 C 22.5,19.5 24.5,19.5 26.5,19.5C 28.5078,21.2676 30.6744,22.9343 33,24.5C 33.3988,24.2716 33.5654,23.9382 33.5,23.5C 36.6818,25.1927 38.3484,27.8593 38.5,31.5C 38.4738,35.9806 36.8071,39.6473 33.5,42.5C 30.7074,44.9205 27.3741,45.9205 23.5,45.5C 19.6259,45.9205 16.2926,44.9205 13.5,42.5C 10.1929,39.6473 8.52624,35.9806 8.5,31.5C 9.38326,28.2957 11.0499,25.6291 13.5,23.5C 13.4346,23.9382 13.6012,24.2716 14,24.5C 16.3256,22.9343 18.4922,21.2676 20.5,19.5 Z"/></g>
<g><path style="opacity:1" fill="#4c6675" d="M 26.5,19.5 C 29.8116,19.149 32.145,20.4823 33.5,23.5C 33.5654,23.9382 33.3988,24.2716 33,24.5C 30.6744,22.9343 28.5078,21.2676 26.5,19.5 Z"/></g>
<g><path style="opacity:1" fill="#f1f6fa" d="M 28.5,34.5 C 28.5,33.8333 28.5,33.1667 28.5,32.5C 29.8725,30.6505 29.3725,29.3172 27,28.5C 26.2828,29.0442 25.7828,29.7109 25.5,30.5C 24.1667,30.5 22.8333,30.5 21.5,30.5C 18.4785,27.8471 17.4785,28.5138 18.5,32.5C 18.5,33.1667 18.5,33.8333 18.5,34.5C 15.2463,33.327 14.0796,30.9937 15,27.5C 17.7158,25.0321 20.5492,25.0321 23.5,27.5C 25.9956,25.0466 28.6623,24.8799 31.5,27C 33.1522,30.5321 32.1522,33.0321 28.5,34.5 Z"/></g>
<g><path style="opacity:1" fill="#323e44" d="M 21.5,30.5 C 20.5,31.1667 19.5,31.8333 18.5,32.5C 17.4785,28.5138 18.4785,27.8471 21.5,30.5 Z"/></g>
<g><path style="opacity:1" fill="#323e44" d="M 28.5,32.5 C 27.5,31.8333 26.5,31.1667 25.5,30.5C 25.7828,29.7109 26.2828,29.0442 27,28.5C 29.3725,29.3172 29.8725,30.6505 28.5,32.5 Z"/></g>
<g><path style="opacity:0.94" fill="#40a1f2" d="M 6.5,30.5 C 7.16667,30.8333 7.83333,31.1667 8.5,31.5C 8.52624,35.9806 10.1929,39.6473 13.5,42.5C 4.84156,43.673 1.00823,40.0063 2,31.5C 3.35613,30.6198 4.85613,30.2865 6.5,30.5 Z"/></g>
<g><path style="opacity:1" fill="#8ec7f4" d="M 21.5,30.5 C 22.8333,30.5 24.1667,30.5 25.5,30.5C 26.5,31.1667 27.5,31.8333 28.5,32.5C 28.5,33.1667 28.5,33.8333 28.5,34.5C 27.0433,38.0491 24.3766,39.2158 20.5,38C 19.1772,37.1841 18.5106,36.0174 18.5,34.5C 18.5,33.8333 18.5,33.1667 18.5,32.5C 19.5,31.8333 20.5,31.1667 21.5,30.5 Z"/></g>
<g><path style="opacity:0.94" fill="#40a1f2" d="M 40.5,30.5 C 42.1439,30.2865 43.6439,30.6198 45,31.5C 45.9918,40.0063 42.1584,43.673 33.5,42.5C 36.8071,39.6473 38.4738,35.9806 38.5,31.5C 39.1667,31.1667 39.8333,30.8333 40.5,30.5 Z"/></g>
<g><path style="opacity:1" fill="#496576" d="M 29.5,38.5 C 30.7733,39.0768 30.7733,39.7435 29.5,40.5C 25.3364,43.3022 21.3364,43.1356 17.5,40C 19.2708,39.963 21.1042,40.1297 23,40.5C 25.4839,40.5033 27.6505,39.8366 29.5,38.5 Z"/></g>
</svg>
