<?xml version="1.0" encoding="UTF-8"?>
<!DOCTYPE svg PUBLIC "-//W3C//DTD SVG 1.1//EN" "http://www.w3.org/Graphics/SVG/1.1/DTD/svg11.dtd">
<svg xmlns="http://www.w3.org/2000/svg" version="1.1" width="100px" height="100px" style="shape-rendering:geometricPrecision; text-rendering:geometricPrecision; image-rendering:optimizeQuality; fill-rule:evenodd; clip-rule:evenodd" xmlns:xlink="http://www.w3.org/1999/xlink">
<g><path style="opacity:0.993" fill="#4242be" d="M 40.5,13.5 C 40.5,15.5 40.5,17.5 40.5,19.5C 36.8333,19.5 33.1667,19.5 29.5,19.5C 29.5,38.1667 29.5,56.8333 29.5,75.5C 29.5,77.5 29.5,79.5 29.5,81.5C 27.5,81.5 25.5,81.5 23.5,81.5C 23.5,58.8333 23.5,36.1667 23.5,13.5C 29.1667,13.5 34.8333,13.5 40.5,13.5 Z"/></g>
<g><path style="opacity:0.991" fill="#4242be" d="M 61.5,13.5 C 66.8333,13.5 72.1667,13.5 77.5,13.5C 77.5,15.5 77.5,17.5 77.5,19.5C 75.5,19.5 73.5,19.5 71.5,19.5C 68.1667,19.5 64.8333,19.5 61.5,19.5C 61.5,17.5 61.5,15.5 61.5,13.5 Z"/></g>
<g><path style="opacity:1" fill="#fe8305" d="M 40.5,13.5 C 47.5,13.5 54.5,13.5 61.5,13.5C 61.5,15.5 61.5,17.5 61.5,19.5C 61.5,20.8333 61.5,22.1667 61.5,23.5C 54.5,23.5 47.5,23.5 40.5,23.5C 40.5,22.1667 40.5,20.8333 40.5,19.5C 40.5,17.5 40.5,15.5 40.5,13.5 Z"/></g>
<g><path style="opacity:1" fill="#4b4dfe" d="M 40.5,19.5 C 40.5,20.8333 40.5,22.1667 40.5,23.5C 47.5,23.5 54.5,23.5 61.5,23.5C 61.5,22.1667 61.5,20.8333 61.5,19.5C 64.8333,19.5 68.1667,19.5 71.5,19.5C 71.5,38.1667 71.5,56.8333 71.5,75.5C 57.5,75.5 43.5,75.5 29.5,75.5C 29.5,56.8333 29.5,38.1667 29.5,19.5C 33.1667,19.5 36.8333,19.5 40.5,19.5 Z"/></g>
<g><path style="opacity:0.998" fill="#39bbf7" d="M 71.5,19.5 C 73.5,19.5 75.5,19.5 77.5,19.5C 78.8333,19.5 80.1667,19.5 81.5,19.5C 81.5,41.5 81.5,63.5 81.5,85.5C 64.1667,85.5 46.8333,85.5 29.5,85.5C 29.5,84.1667 29.5,82.8333 29.5,81.5C 29.5,79.5 29.5,77.5 29.5,75.5C 43.5,75.5 57.5,75.5 71.5,75.5C 71.5,56.8333 71.5,38.1667 71.5,19.5 Z"/></g>
<g><path style="opacity:1" fill="#e0e8f6" d="M 61.5,36.5 C 62.6431,36.9081 63.6431,37.5748 64.5,38.5C 61.6502,45.7352 57.9836,46.2352 53.5,40C 55.0516,36.8486 56.8849,36.682 59,39.5C 60.045,38.6266 60.8783,37.6266 61.5,36.5 Z"/></g>
<g><path style="opacity:1" fill="#ecf6f5" d="M 36.5,40.5 C 40.5,40.5 44.5,40.5 48.5,40.5C 48.5,41.8333 48.5,43.1667 48.5,44.5C 44.5,44.5 40.5,44.5 36.5,44.5C 36.5,43.1667 36.5,41.8333 36.5,40.5 Z"/></g>
<g><path style="opacity:1" fill="#e0e8f6" d="M 61.5,53.5 C 62.6431,53.9081 63.6431,54.5748 64.5,55.5C 61.6502,62.7352 57.9836,63.2352 53.5,57C 55.0516,53.8486 56.8849,53.682 59,56.5C 60.045,55.6266 60.8783,54.6266 61.5,53.5 Z"/></g>
<g><path style="opacity:1" fill="#ecf6f5" d="M 36.5,57.5 C 40.5,57.5 44.5,57.5 48.5,57.5C 48.5,58.8333 48.5,60.1667 48.5,61.5C 44.5,61.5 40.5,61.5 36.5,61.5C 36.5,60.1667 36.5,58.8333 36.5,57.5 Z"/></g>
</svg>
