<?xml version="1.0" encoding="UTF-8"?>
<!DOCTYPE svg PUBLIC "-//W3C//DTD SVG 1.1//EN" "http://www.w3.org/Graphics/SVG/1.1/DTD/svg11.dtd">
<svg xmlns="http://www.w3.org/2000/svg" version="1.1" width="500px" height="500px" style="shape-rendering:geometricPrecision; text-rendering:geometricPrecision; image-rendering:optimizeQuality; fill-rule:evenodd; clip-rule:evenodd" xmlns:xlink="http://www.w3.org/1999/xlink">
<g><path style="opacity:1" fill="#fefefe" d="M -0.5,-0.5 C 166.167,-0.5 332.833,-0.5 499.5,-0.5C 499.5,166.167 499.5,332.833 499.5,499.5C 332.833,499.5 166.167,499.5 -0.5,499.5C -0.5,332.833 -0.5,166.167 -0.5,-0.5 Z"/></g>
<g><path style="opacity:1" fill="#38b5fe" d="M 38.5,198.5 C 59.8359,198.333 81.1693,198.5 102.5,199C 111.162,201.066 116.996,206.232 120,214.5C 120.667,237.833 120.667,261.167 120,284.5C 116.957,292.778 111.124,297.945 102.5,300C 81.5,300.667 60.5,300.667 39.5,300C 31.3181,297.664 25.8181,292.497 23,284.5C 22.3333,261.167 22.3333,237.833 23,214.5C 25.9942,207.007 31.1609,201.673 38.5,198.5 Z"/></g>
<g><path style="opacity:1" fill="#02fe84" d="M 243.5,198.5 C 265.169,198.333 286.836,198.5 308.5,199C 316.682,201.336 322.182,206.503 325,214.5C 325.667,237.5 325.667,260.5 325,283.5C 322.737,292.219 317.237,297.719 308.5,300C 286.833,300.667 265.167,300.667 243.5,300C 235.723,297.376 230.556,292.21 228,284.5C 227.333,261.167 227.333,237.833 228,214.5C 230.659,206.675 235.825,201.342 243.5,198.5 Z"/></g>
<g><path style="opacity:1" fill="#07864d" d="M 64.5,216.5 C 92.9504,216.458 104.45,230.458 99,258.5C 97.0131,264.478 93.5131,269.312 88.5,273C 92.1761,276.68 94.8428,281.014 96.5,286C 94.4402,291.697 90.4402,293.697 84.5,292C 81.1667,287.667 77.8333,283.333 74.5,279C 53.344,278.177 42.6773,267.177 42.5,246C 43.19,231.088 50.5233,221.255 64.5,216.5 Z"/></g>
<g><path style="opacity:1" fill="#238b51" d="M 171.5,216.5 C 178.66,214.902 182.994,217.568 184.5,224.5C 183.324,229.508 180.158,232.174 175,232.5C 168.834,231.339 166.168,227.672 167,221.5C 168.025,219.313 169.525,217.646 171.5,216.5 Z"/></g>
<g><path style="opacity:1" fill="#065a84" d="M 252.5,216.5 C 257.421,216.043 260.921,218.043 263,222.5C 267.286,233.367 271.953,244.033 277,254.5C 281.725,242.717 286.725,231.051 292,219.5C 296.709,215.231 301.042,215.564 305,220.5C 305.401,224.316 304.734,227.983 303,231.5C 296.333,246.167 289.667,260.833 283,275.5C 278.948,277.942 274.781,278.109 270.5,276C 262.597,259.694 255.097,243.194 248,226.5C 247.077,222.017 248.577,218.683 252.5,216.5 Z"/></g>
<g><path style="opacity:1" fill="#00fb82" d="M 64.5,219.5 C 89.9116,218.745 100.578,230.911 96.5,256C 94.5595,263.57 90.2262,269.237 83.5,273C 88.2683,276.191 91.6016,280.524 93.5,286C 91.8419,289.297 89.1752,290.297 85.5,289C 82.5852,285.172 79.9186,281.172 77.5,277C 51.7309,274.873 41.5642,261.04 47,235.5C 50.5029,227.492 56.3362,222.159 64.5,219.5 Z"/></g>
<g><path style="opacity:1" fill="#00f37d" d="M 173.5,218.5 C 181.828,219.069 183.495,222.569 178.5,229C 172.132,230.258 169.298,227.758 170,221.5C 171.145,220.364 172.312,219.364 173.5,218.5 Z"/></g>
<g><path style="opacity:1" fill="#36b2fb" d="M 252.5,219.5 C 255.044,219.104 257.211,219.771 259,221.5C 265.017,234.864 271.017,248.197 277,261.5C 282.472,248.085 288.138,234.752 294,221.5C 300,217.833 302.667,219.5 302,226.5C 295.392,240.716 289.059,255.049 283,269.5C 281.159,275.006 277.659,276.506 272.5,274C 264.93,258.36 257.764,242.527 251,226.5C 250.167,223.829 250.667,221.496 252.5,219.5 Z"/></g>
<g><path style="opacity:1" fill="#04884b" d="M 65.5,228.5 C 82.1604,227.105 89.327,234.772 87,251.5C 84.1875,264.658 76.3542,269.158 63.5,265C 54.2976,255.12 53.1309,244.287 60,232.5C 62.0153,231.303 63.8487,229.97 65.5,228.5 Z"/></g>
<g><path style="opacity:1" fill="#37b4fa" d="M 67.5,230.5 C 75.6485,229.485 81.1485,232.818 84,240.5C 84.5958,245.88 84.2625,251.213 83,256.5C 79.3449,263.07 73.8449,265.237 66.5,263C 63.2716,261.437 61.1049,258.937 60,255.5C 56.21,245.051 58.71,236.717 67.5,230.5 Z"/></g>
<g><path style="opacity:1" fill="#1a894d" d="M 126.5,233.5 C 131.223,232.553 135.056,233.886 138,237.5C 138.333,246.167 138.667,254.833 139,263.5C 142.249,265.117 144.916,264.451 147,261.5C 147.06,253.064 147.727,244.731 149,236.5C 153.958,232.285 158.625,232.619 163,237.5C 163.667,249.833 163.667,262.167 163,274.5C 158.792,278.096 154.292,278.429 149.5,275.5C 141.436,280.113 133.936,279.447 127,273.5C 123.1,266.381 121.6,258.714 122.5,250.5C 122.667,246.167 122.833,241.833 123,237.5C 124.376,236.295 125.542,234.962 126.5,233.5 Z"/></g>
<g><path style="opacity:1" fill="#1b894f" d="M 171.5,233.5 C 176.635,232.426 180.468,234.093 183,238.5C 183.667,250.167 183.667,261.833 183,273.5C 180.045,277.277 176.212,278.443 171.5,277C 169.951,275.786 168.785,274.286 168,272.5C 167.333,261.167 167.333,249.833 168,238.5C 168.997,236.677 170.164,235.01 171.5,233.5 Z"/></g>
<g><path style="opacity:1" fill="#185d8b" d="M 340.5,233.5 C 355.998,231.039 364.998,237.372 367.5,252.5C 367.679,255.131 367.013,257.465 365.5,259.5C 357.549,260.303 349.549,260.803 341.5,261C 343.555,263.926 346.388,265.093 350,264.5C 354.754,263.205 359.587,262.705 364.5,263C 368.393,266.588 368.393,270.254 364.5,274C 351.261,280.988 339.428,279.154 329,268.5C 322.391,253.115 326.224,241.449 340.5,233.5 Z"/></g>
<g><path style="opacity:1" fill="#195d8a" d="M 373.5,233.5 C 377.401,232.857 380.734,233.857 383.5,236.5C 387.809,233.743 392.475,232.909 397.5,234C 399.317,235.8 400.484,237.966 401,240.5C 403.593,237.457 406.76,235.29 410.5,234C 416.253,233.149 421.92,233.483 427.5,235C 435.006,237.557 436.339,241.891 431.5,248C 429.5,248.667 427.5,248.667 425.5,248C 423.163,246.659 420.663,245.826 418,245.5C 414.552,244.939 413.385,246.106 414.5,249C 419.301,249.378 423.968,250.378 428.5,252C 431.333,253.5 433.5,255.667 435,258.5C 436.254,238.899 446.421,231.066 465.5,235C 475.097,240.223 478.597,248.056 476,258.5C 475.25,259.126 474.416,259.626 473.5,260C 466.144,260.169 458.811,260.669 451.5,261.5C 453.542,263.924 456.209,264.924 459.5,264.5C 464.442,263.237 469.442,262.737 474.5,263C 478.253,269.284 476.587,273.617 469.5,276C 459.975,279.687 450.975,278.687 442.5,273C 439.509,270.01 437.343,266.51 436,262.5C 434.146,273.676 427.479,279.009 416,278.5C 409.515,278.634 403.848,276.634 399,272.5C 397.817,268.726 398.651,265.559 401.5,263C 406.299,263.588 411.132,264.421 416,265.5C 417.5,265.167 419,264.833 420.5,264.5C 420.291,263.914 419.957,263.414 419.5,263C 413.761,262.458 408.428,260.791 403.5,258C 399.9,254.632 398.067,250.465 398,245.5C 395.07,247.066 391.903,247.9 388.5,248C 387.667,248.833 386.833,249.667 386,250.5C 385.667,258.167 385.333,265.833 385,273.5C 379.954,278.824 374.954,278.824 370,273.5C 369.333,261.5 369.333,249.5 370,237.5C 371.376,236.295 372.542,234.962 373.5,233.5 Z"/></g>
<g><path style="opacity:1" fill="#1a8a4d" d="M 189.5,233.5 C 198.839,233.334 208.173,233.5 217.5,234C 222.434,236.665 223.601,240.498 221,245.5C 215.927,251.317 211.093,257.317 206.5,263.5C 211.132,264.328 215.798,264.828 220.5,265C 224.455,268.795 224.455,272.628 220.5,276.5C 210.214,277.642 199.88,277.809 189.5,277C 185.874,274.749 184.707,271.582 186,267.5C 191.167,261 196.333,254.5 201.5,248C 197.5,247.667 193.5,247.333 189.5,247C 184.234,242.455 184.234,237.955 189.5,233.5 Z"/></g>
<g><path style="opacity:1" fill="#00fa81" d="M 127.5,236.5 C 130.365,236.055 132.865,236.722 135,238.5C 135.333,246.833 135.667,255.167 136,263.5C 138.89,267.828 142.723,268.661 147.5,266C 148.701,265.097 149.535,263.931 150,262.5C 150.333,254.5 150.667,246.5 151,238.5C 154,235.833 157,235.833 160,238.5C 160.821,250.409 160.654,262.243 159.5,274C 154.396,276.846 151.563,275.346 151,269.5C 144.19,276.519 136.856,277.186 129,271.5C 127.438,269.043 126.438,266.376 126,263.5C 125.333,255.167 125.333,246.833 126,238.5C 126.717,237.956 127.217,237.289 127.5,236.5 Z"/></g>
<g><path style="opacity:1" fill="#00fa81" d="M 172.5,236.5 C 175.365,236.055 177.865,236.722 180,238.5C 180.667,249.833 180.667,261.167 180,272.5C 177,275.167 174,275.167 171,272.5C 170.333,261.167 170.333,249.833 171,238.5C 171.717,237.956 172.217,237.289 172.5,236.5 Z"/></g>
<g><path style="opacity:1" fill="#36b2fa" d="M 340.5,236.5 C 345.93,236.161 351.264,236.661 356.5,238C 363.35,242.695 365.683,249.028 363.5,257C 355.173,257.5 346.84,257.666 338.5,257.5C 339.813,266.929 345.147,270.095 354.5,267C 356.722,266.305 358.889,265.472 361,264.5C 365.725,267.48 365.558,270.313 360.5,273C 339.675,279.527 329.175,272.027 329,250.5C 330.873,244.136 334.706,239.469 340.5,236.5 Z"/></g>
<g><path style="opacity:1" fill="#36b3fb" d="M 374.5,236.5 C 379.813,235.115 382.313,237.115 382,242.5C 385.509,237.162 390.342,235.328 396.5,237C 397.982,239.592 397.648,241.925 395.5,244C 390.287,243.524 386.12,245.358 383,249.5C 382.667,257.167 382.333,264.833 382,272.5C 378.952,276.482 375.952,276.482 373,272.5C 372.333,261.167 372.333,249.833 373,238.5C 373.717,237.956 374.217,237.289 374.5,236.5 Z"/></g>
<g><path style="opacity:1" fill="#35b2fa" d="M 410.5,236.5 C 415.179,236.334 419.845,236.501 424.5,237C 429.791,237.584 431.791,240.25 430.5,245C 426.109,244.825 421.776,243.991 417.5,242.5C 411.122,242.984 409.456,245.817 412.5,251C 418.407,251.913 424.073,253.58 429.5,256C 434.86,265.571 432.193,271.904 421.5,275C 414.81,276.15 408.476,275.15 402.5,272C 399.674,269.136 400.174,266.969 404,265.5C 410.224,268.935 416.558,269.269 423,266.5C 423.743,264.559 423.576,262.726 422.5,261C 418.277,259.528 413.943,258.528 409.5,258C 403.066,255.706 400.566,251.206 402,244.5C 404.074,240.923 406.907,238.256 410.5,236.5 Z"/></g>
<g><path style="opacity:1" fill="#36b3fb" d="M 450.5,236.5 C 466.736,234.251 474.403,241.084 473.5,257C 464.84,257.5 456.173,257.666 447.5,257.5C 447.345,262.023 449.345,265.189 453.5,267C 460.264,267.612 466.93,267.112 473.5,265.5C 473.896,268.044 473.229,270.211 471.5,272C 460.757,277.548 450.924,276.381 442,268.5C 434.946,254.956 437.78,244.29 450.5,236.5 Z"/></g>
<g><path style="opacity:1" fill="#00f981" d="M 190.5,236.5 C 199.173,236.334 207.84,236.5 216.5,237C 219.902,238.786 220.402,241.286 218,244.5C 211.833,252 205.667,259.5 199.5,267C 206.167,267.333 212.833,267.667 219.5,268C 220.935,270.267 220.602,272.267 218.5,274C 209.167,274.667 199.833,274.667 190.5,274C 187.918,271.108 188.084,268.275 191,265.5C 196.5,258.667 202,251.833 207.5,245C 201.833,244.667 196.167,244.333 190.5,244C 187.914,241.506 187.914,239.006 190.5,236.5 Z"/></g>
<g><path style="opacity:1" fill="#0b5989" d="M 344.5,242.5 C 352.187,241.651 356.187,244.984 356.5,252.5C 350.5,252.5 344.5,252.5 338.5,252.5C 338.469,247.887 340.469,244.553 344.5,242.5 Z"/></g>
<g><path style="opacity:1" fill="#0b5a8a" d="M 453.5,242.5 C 461.379,241.391 465.712,244.724 466.5,252.5C 460.167,252.5 453.833,252.5 447.5,252.5C 447.992,248.169 449.992,244.836 453.5,242.5 Z"/></g>
<g><path style="opacity:1" fill="#f2f6f8" d="M 345.5,245.5 C 348.961,244.889 351.628,246.056 353.5,249C 349.5,249.667 345.5,249.667 341.5,249C 342.731,247.595 344.064,246.429 345.5,245.5 Z"/></g>
<g><path style="opacity:1" fill="#f2f6f9" d="M 454.5,245.5 C 457.798,245.016 460.464,246.016 462.5,248.5C 458.833,249.833 455.167,249.833 451.5,248.5C 452.77,247.712 453.77,246.712 454.5,245.5 Z"/></g>
</svg>
