<?xml version="1.0" encoding="UTF-8"?>
<!DOCTYPE svg PUBLIC "-//W3C//DTD SVG 1.1//EN" "http://www.w3.org/Graphics/SVG/1.1/DTD/svg11.dtd">
<svg xmlns="http://www.w3.org/2000/svg" version="1.1" width="500px" height="500px" style="shape-rendering:geometricPrecision; text-rendering:geometricPrecision; image-rendering:optimizeQuality; fill-rule:evenodd; clip-rule:evenodd" xmlns:xlink="http://www.w3.org/1999/xlink">
<g><path style="opacity:0.004" fill="#fefffe" d="M 80.5,0.5 C 81.8333,1.16667 81.8333,1.16667 80.5,0.5 Z"/></g>
<g><path style="opacity:0.004" fill="#fefffe" d="M 346.5,6.5 C 347.833,7.16667 347.833,7.16667 346.5,6.5 Z"/></g>
<g><path style="opacity:0.004" fill="#fefffe" d="M 477.5,14.5 C 478.833,15.1667 478.833,15.1667 477.5,14.5 Z"/></g>
<g><path style="opacity:0.004" fill="#fefffe" d="M 250.5,15.5 C 251.833,16.1667 251.833,16.1667 250.5,15.5 Z"/></g>
<g><path style="opacity:0.004" fill="#fefffe" d="M 360.5,28.5 C 361.833,29.1667 361.833,29.1667 360.5,28.5 Z"/></g>
<g><path style="opacity:0.004" fill="#fefffe" d="M 118.5,32.5 C 119.833,33.1667 119.833,33.1667 118.5,32.5 Z"/></g>
<g><path style="opacity:0.004" fill="#fefffe" d="M 115.5,36.5 C 116.833,37.1667 116.833,37.1667 115.5,36.5 Z"/></g>
<g><path style="opacity:0.004" fill="#fefffe" d="M 202.5,56.5 C 203.833,57.1667 203.833,57.1667 202.5,56.5 Z"/></g>
<g><path style="opacity:0.004" fill="#fefffe" d="M 294.5,56.5 C 295.833,57.1667 295.833,57.1667 294.5,56.5 Z"/></g>
<g><path style="opacity:0.004" fill="#fefffe" d="M 207.5,57.5 C 208.833,58.1667 208.833,58.1667 207.5,57.5 Z"/></g>
<g><path style="opacity:0.004" fill="#fefffe" d="M 432.5,58.5 C 433.833,59.1667 433.833,59.1667 432.5,58.5 Z"/></g>
<g><path style="opacity:0.004" fill="#fefffe" d="M 371.5,64.5 C 372.833,65.1667 372.833,65.1667 371.5,64.5 Z"/></g>
<g><path style="opacity:0.004" fill="#fefffe" d="M 237.5,65.5 C 238.833,66.1667 238.833,66.1667 237.5,65.5 Z"/></g>
<g><path style="opacity:0.004" fill="#fefffe" d="M 433.5,65.5 C 434.833,66.1667 434.833,66.1667 433.5,65.5 Z"/></g>
<g><path style="opacity:0.004" fill="#fefffe" d="M 0.5,71.5 C 1.83333,72.1667 1.83333,72.1667 0.5,71.5 Z"/></g>
<g><path style="opacity:0.004" fill="#fefffe" d="M 327.5,71.5 C 328.833,72.1667 328.833,72.1667 327.5,71.5 Z"/></g>
<g><path style="opacity:0.004" fill="#fefffe" d="M 14.5,84.5 C 15.8333,85.1667 15.8333,85.1667 14.5,84.5 Z"/></g>
<g><path style="opacity:0.004" fill="#fefffe" d="M 77.5,90.5 C 78.8333,91.1667 78.8333,91.1667 77.5,90.5 Z"/></g>
<g><path style="opacity:0.004" fill="#fefffe" d="M 190.5,95.5 C 191.833,96.1667 191.833,96.1667 190.5,95.5 Z"/></g>
<g><path style="opacity:0.004" fill="#fefffe" d="M 99.5,103.5 C 100.833,104.167 100.833,104.167 99.5,103.5 Z"/></g>
<g><path style="opacity:0.004" fill="#fefffe" d="M 118.5,103.5 C 119.833,104.167 119.833,104.167 118.5,103.5 Z"/></g>
<g><path style="opacity:0.004" fill="#fefffe" d="M 245.5,110.5 C 246.833,111.167 246.833,111.167 245.5,110.5 Z"/></g>
<g><path style="opacity:0.004" fill="#fefffe" d="M 302.5,112.5 C 303.833,113.167 303.833,113.167 302.5,112.5 Z"/></g>
<g><path style="opacity:0.004" fill="#fefffe" d="M 348.5,112.5 C 349.833,113.167 349.833,113.167 348.5,112.5 Z"/></g>
<g><path style="opacity:0.004" fill="#fefffe" d="M 405.5,113.5 C 406.833,114.167 406.833,114.167 405.5,113.5 Z"/></g>
<g><path style="opacity:0.004" fill="#fefffe" d="M 376.5,118.5 C 377.833,119.167 377.833,119.167 376.5,118.5 Z"/></g>
<g><path style="opacity:0.004" fill="#fefffe" d="M 8.5,121.5 C 9.83333,122.167 9.83333,122.167 8.5,121.5 Z"/></g>
<g><path style="opacity:0.004" fill="#fefffe" d="M 457.5,126.5 C 458.833,127.167 458.833,127.167 457.5,126.5 Z"/></g>
<g><path style="opacity:0.004" fill="#fefffe" d="M 239.5,146.5 C 240.833,147.167 240.833,147.167 239.5,146.5 Z"/></g>
<g><path style="opacity:0.004" fill="#fefffe" d="M 231.5,162.5 C 232.833,163.167 232.833,163.167 231.5,162.5 Z"/></g>
<g><path style="opacity:0.004" fill="#fefffe" d="M 362.5,166.5 C 363.833,167.167 363.833,167.167 362.5,166.5 Z"/></g>
<g><path style="opacity:0.004" fill="#fefffe" d="M 415.5,166.5 C 416.833,167.167 416.833,167.167 415.5,166.5 Z"/></g>
<g><path style="opacity:0.004" fill="#fefffe" d="M 58.5,167.5 C 59.8333,168.167 59.8333,168.167 58.5,167.5 Z"/></g>
<g><path style="opacity:0.004" fill="#fefffe" d="M 454.5,169.5 C 455.833,170.167 455.833,170.167 454.5,169.5 Z"/></g>
<g><path style="opacity:0.004" fill="#fefffe" d="M 238.5,171.5 C 239.833,172.167 239.833,172.167 238.5,171.5 Z"/></g>
<g><path style="opacity:0.004" fill="#fefffe" d="M 242.5,179.5 C 243.833,180.167 243.833,180.167 242.5,179.5 Z"/></g>
<g><path style="opacity:0.004" fill="#fefffe" d="M 447.5,181.5 C 448.833,182.167 448.833,182.167 447.5,181.5 Z"/></g>
<g><path style="opacity:0.004" fill="#fefffe" d="M 194.5,182.5 C 195.833,183.167 195.833,183.167 194.5,182.5 Z"/></g>
<g><path style="opacity:0.953" fill="#63b3e0" d="M 112.5,203.5 C 110.244,203.602 107.911,203.268 105.5,202.5C 102.645,200.75 99.3113,199.917 95.5,200C 76.8333,199.333 58.1667,199.333 39.5,200C 37.6547,201.128 35.6547,201.628 33.5,201.5C 34.842,200.207 36.5087,199.374 38.5,199C 60.5,198.333 82.5,198.333 104.5,199C 107.684,199.754 110.351,201.254 112.5,203.5 Z"/></g>
<g><path style="opacity:1" fill="#89ebb5" d="M 321.5,207.5 C 318.717,205.933 316.051,204.1 313.5,202C 311.608,201.027 309.608,200.36 307.5,200C 286.5,199.333 265.5,199.333 244.5,200C 242.655,201.128 240.655,201.628 238.5,201.5C 241.422,199.469 244.755,198.302 248.5,198C 266.833,197.333 285.167,197.333 303.5,198C 311.104,198.3 317.104,201.467 321.5,207.5 Z"/></g>
<g><path style="opacity:1" fill="#3cb5fc" d="M 105.5,202.5 C 105.047,203.458 104.381,204.292 103.5,205C 106.362,206.289 109.695,206.789 113.5,206.5C 113.881,208.741 114.048,211.074 114,213.5C 115.333,213.5 116.667,213.5 118,213.5C 118.965,227.477 119.465,241.643 119.5,256C 119.437,266.521 119.104,277.021 118.5,287.5C 117.647,291.02 115.647,293.687 112.5,295.5C 109.774,295.264 107.441,296.097 105.5,298C 99.5163,298.698 93.5163,299.198 87.5,299.5C 71.1742,298.797 54.8409,298.297 38.5,298C 35.8107,296.076 32.8107,294.909 29.5,294.5C 25.48,291.137 22.98,286.804 22,281.5C 21.3333,260.167 21.3333,238.833 22,217.5C 23.1696,210.129 27.0029,204.796 33.5,201.5C 35.6547,201.628 37.6547,201.128 39.5,200C 58.1667,199.333 76.8333,199.333 95.5,200C 99.3113,199.917 102.645,200.75 105.5,202.5 Z"/></g>
<g><path style="opacity:1" fill="#01fe84" d="M 321.5,207.5 C 321.754,210.014 322.587,212.348 324,214.5C 324.794,238.857 324.628,263.19 323.5,287.5C 323.5,287.833 323.5,288.167 323.5,288.5C 318.646,290.704 314.646,293.871 311.5,298C 288.493,298.833 265.493,298.666 242.5,297.5C 239.884,295.197 236.884,293.864 233.5,293.5C 231.774,290.272 230.274,286.939 229,283.5C 228.333,260.5 228.333,237.5 229,214.5C 232.622,210.457 235.788,206.123 238.5,201.5C 240.655,201.628 242.655,201.128 244.5,200C 265.5,199.333 286.5,199.333 307.5,200C 309.608,200.36 311.608,201.027 313.5,202C 316.051,204.1 318.717,205.933 321.5,207.5 Z"/></g>
<g><path style="opacity:0.004" fill="#fefffe" d="M 196.5,206.5 C 197.833,207.167 197.833,207.167 196.5,206.5 Z"/></g>
<g><path style="opacity:0.004" fill="#fefffe" d="M 450.5,212.5 C 451.833,213.167 451.833,213.167 450.5,212.5 Z"/></g>
<g><path style="opacity:1" fill="#02f17e" d="M 266.5,273.5 C 267.374,275.69 269.041,276.69 271.5,276.5C 272.777,277.898 274.443,278.564 276.5,278.5C 280.583,278.463 284.083,277.13 287,274.5C 293.206,260.866 299.206,247.199 305,233.5C 306.693,228.095 305.193,224.095 300.5,221.5C 300.167,221.5 299.833,221.5 299.5,221.5C 298.666,220.252 297.333,219.585 295.5,219.5C 293.667,219.585 292.334,220.252 291.5,221.5C 291.5,222.167 291.5,222.833 291.5,223.5C 290.5,223.833 289.833,224.5 289.5,225.5C 287.926,227.102 287.259,229.102 287.5,231.5C 284.757,235.434 282.757,239.767 281.5,244.5C 279.273,245.401 278.273,247.067 278.5,249.5C 277.312,250.684 276.145,250.684 275,249.5C 272.713,241.599 269.379,234.265 265,227.5C 263.89,225.963 262.39,225.297 260.5,225.5C 260.756,223.208 260.423,221.041 259.5,219C 256.183,218.502 252.85,218.335 249.5,218.5C 250.249,216.754 251.583,215.754 253.5,215.5C 257.475,217.062 261.475,218.562 265.5,220C 268.946,228.264 273.279,236.097 278.5,243.5C 278.833,242.833 279.167,242.167 279.5,241.5C 277.237,237.295 278.07,233.628 282,230.5C 282.419,231.672 283.085,232.672 284,233.5C 284.314,231.131 285.148,228.964 286.5,227C 285.453,223.624 286.786,221.791 290.5,221.5C 290.5,220.5 290.5,219.5 290.5,218.5C 293.187,218.664 295.854,218.497 298.5,218C 299.047,217.075 299.713,216.242 300.5,215.5C 303.903,216.72 306.736,218.72 309,221.5C 310.232,228.839 309.232,235.839 306,242.5C 300.892,251.824 296.559,261.49 293,271.5C 291.122,274.978 289.122,278.312 287,281.5C 282.69,285.429 277.857,286.262 272.5,284C 268.673,282.135 265.173,279.969 262,277.5C 261.167,277.833 260.333,278.167 259.5,278.5C 260.833,280.5 262.167,282.5 263.5,284.5C 261.604,285.466 259.604,285.799 257.5,285.5C 257.117,280.48 258.617,276.147 262,272.5C 263.356,273.38 264.856,273.714 266.5,273.5 Z"/></g>
<g><path style="opacity:1" fill="#1ed3c1" d="M 299.5,221.5 C 296.833,220.167 294.167,220.167 291.5,221.5C 292.334,220.252 293.667,219.585 295.5,219.5C 297.333,219.585 298.666,220.252 299.5,221.5 Z"/></g>
<g><path style="opacity:1" fill="#1cd8ba" d="M 63.5,220.5 C 61.2446,222.38 58.5779,223.38 55.5,223.5C 57.7554,221.62 60.4221,220.62 63.5,220.5 Z"/></g>
<g><path style="opacity:1" fill="#1fcec3" d="M 248.5,219.5 C 248.833,219.5 249.167,219.5 249.5,219.5C 253.483,218.572 256.15,219.905 257.5,223.5C 255.674,222.562 253.841,221.562 252,220.5C 251.167,220.667 250.333,220.833 249.5,221C 248.594,222.699 248.261,224.533 248.5,226.5C 247.549,225.081 247.216,223.415 247.5,221.5C 247.833,220.833 248.167,220.167 248.5,219.5 Z"/></g>
<g><path style="opacity:1" fill="#1de2a3" d="M 79.5,220.5 C 82.3539,221.026 85.0206,222.026 87.5,223.5C 88.5,224.833 89.5,226.167 90.5,227.5C 86.3327,225.886 82.666,223.553 79.5,220.5 Z"/></g>
<g><path style="opacity:1" fill="#21a5bd" d="M 87.5,223.5 C 92.3848,223.384 94.3848,225.717 93.5,230.5C 92.2719,229.694 91.2719,228.694 90.5,227.5C 89.5,226.167 88.5,224.833 87.5,223.5 Z"/></g>
<g><path style="opacity:1" fill="#4dea9e" d="M 172.5,218.5 C 181.023,218.061 183.356,221.561 179.5,229C 172.421,231.071 169.254,228.571 170,221.5C 170.698,220.309 171.531,219.309 172.5,218.5 Z"/></g>
<g><path style="opacity:1" fill="#05fc84" d="M 171.5,220.5 C 177.927,218.762 180.594,221.095 179.5,227.5C 173.073,229.238 170.406,226.905 171.5,220.5 Z"/></g>
<g><path style="opacity:1" fill="#20d4bc" d="M 55.5,223.5 C 53.8777,226.455 51.8777,229.122 49.5,231.5C 50.3528,227.98 52.3528,225.313 55.5,223.5 Z"/></g>
<g><path style="opacity:0.004" fill="#fefffe" d="M 349.5,226.5 C 350.833,227.167 350.833,227.167 349.5,226.5 Z"/></g>
<g><path style="opacity:1" fill="#04d371" d="M 249.5,219.5 C 249.5,219.167 249.5,218.833 249.5,218.5C 252.85,218.335 256.183,218.502 259.5,219C 260.423,221.041 260.756,223.208 260.5,225.5C 262.39,225.297 263.89,225.963 265,227.5C 269.379,234.265 272.713,241.599 275,249.5C 276.145,250.684 277.312,250.684 278.5,249.5C 278.5,250.167 278.5,250.833 278.5,251.5C 278.167,251.5 277.833,251.5 277.5,251.5C 276.874,253.626 275.541,255.293 273.5,256.5C 272.143,254.435 270.81,252.435 269.5,250.5C 269.443,249.391 269.11,248.391 268.5,247.5C 267.646,242.78 266.479,238.114 265,233.5C 263.778,230.589 261.945,228.256 259.5,226.5C 258.094,226.027 257.427,225.027 257.5,223.5C 256.15,219.905 253.483,218.572 249.5,219.5 Z"/></g>
<g><path style="opacity:0.004" fill="#fefffe" d="M 182.5,229.5 C 183.833,230.167 183.833,230.167 182.5,229.5 Z"/></g>
<g><path style="opacity:1" fill="#12ab76" d="M 299.5,221.5 C 299.833,221.5 300.167,221.5 300.5,221.5C 300.5,221.833 300.5,222.167 300.5,222.5C 300.625,227.333 299.792,232 298,236.5C 297.667,236.167 297.333,235.833 297,235.5C 296.587,238.232 295.92,240.899 295,243.5C 292.83,246.51 290.664,249.51 288.5,252.5C 286.533,258.943 284.367,265.276 282,271.5C 281.667,271.167 281.333,270.833 281,270.5C 280.688,273.309 279.188,274.976 276.5,275.5C 277.5,274.167 278.5,272.833 279.5,271.5C 282.086,264.914 284.586,258.247 287,251.5C 289.498,248.511 291.498,245.178 293,241.5C 295.031,234.694 297.197,228.027 299.5,221.5 Z"/></g>
<g><path style="opacity:1" fill="#17de96" d="M 247.5,221.5 C 247.216,223.415 247.549,225.081 248.5,226.5C 250.479,229.446 251.479,232.779 251.5,236.5C 250.85,236.196 250.183,235.863 249.5,235.5C 248.895,232.696 248.062,230.029 247,227.5C 246.211,225.288 246.378,223.288 247.5,221.5 Z"/></g>
<g><path style="opacity:0.004" fill="#fefffe" d="M 444.5,235.5 C 445.833,236.167 445.833,236.167 444.5,235.5 Z"/></g>
<g><path style="opacity:1" fill="#18bda5" d="M 93.5,231.5 C 94.8333,232.167 95.8333,233.167 96.5,234.5C 96.5,235.167 96.5,235.833 96.5,236.5C 96.5,237.167 96.5,237.833 96.5,238.5C 95.6557,236.157 94.6557,233.824 93.5,231.5 Z"/></g>
<g><path style="opacity:1" fill="#5ee1a1" d="M 179.5,273.5 C 179.828,261.655 179.495,249.988 178.5,238.5C 177.726,237.853 176.726,237.52 175.5,237.5C 173.97,237.64 172.97,238.307 172.5,239.5C 171.505,250.654 171.172,261.988 171.5,273.5C 170.341,262.007 170.174,250.341 171,238.5C 173.288,235.222 176.121,234.722 179.5,237C 180.191,238.067 180.691,239.234 181,240.5C 180.531,249.73 180.698,258.897 181.5,268C 180.891,269.948 180.224,271.782 179.5,273.5 Z"/></g>
<g><path style="opacity:0.004" fill="#fefffe" d="M 166.5,237.5 C 167.833,238.167 167.833,238.167 166.5,237.5 Z"/></g>
<g><path style="opacity:1" fill="#4de997" d="M 215.5,247.5 C 216.379,245.772 217.046,243.939 217.5,242C 217.415,240.893 217.081,239.893 216.5,239C 207.84,238.5 199.173,238.334 190.5,238.5C 190.5,239.833 190.5,241.167 190.5,242.5C 189.549,241.081 189.216,239.415 189.5,237.5C 198.657,236.342 207.991,236.176 217.5,237C 219.032,237.7 220.032,238.866 220.5,240.5C 219.547,243.43 217.88,245.763 215.5,247.5 Z"/></g>
<g><path style="opacity:1" fill="#138c99" d="M 96.5,236.5 C 97.1174,236.611 97.6174,236.944 98,237.5C 98.2239,244.037 98.7239,250.537 99.5,257C 99.2517,258.749 98.2517,259.582 96.5,259.5C 96.5,258.167 96.5,256.833 96.5,255.5C 97.804,249.933 97.804,244.266 96.5,238.5C 96.5,237.833 96.5,237.167 96.5,236.5 Z"/></g>
<g><path style="opacity:1" fill="#02fd85" d="M 178.5,238.5 C 178.832,249.853 178.499,261.186 177.5,272.5C 175.958,273.747 174.458,273.747 173,272.5C 172.5,261.505 172.333,250.505 172.5,239.5C 172.97,238.307 173.97,237.64 175.5,237.5C 176.726,237.52 177.726,237.853 178.5,238.5 Z"/></g>
<g><path style="opacity:1" fill="#08fb86" d="M 149.5,263.5 C 149.5,263.167 149.5,262.833 149.5,262.5C 150.117,262.389 150.617,262.056 151,261.5C 151.333,254.167 151.667,246.833 152,239.5C 152.71,238.027 153.876,237.36 155.5,237.5C 156.822,237.33 157.989,237.663 159,238.5C 159.5,250.162 159.667,261.829 159.5,273.5C 155.927,273.959 152.927,272.959 150.5,270.5C 149.893,270.624 149.56,270.957 149.5,271.5C 146.183,272.488 142.849,273.488 139.5,274.5C 132.418,274.256 128.251,270.589 127,263.5C 126.333,255.167 126.333,246.833 127,238.5C 130.086,236.78 132.419,237.447 134,240.5C 134.168,249.518 134.668,258.518 135.5,267.5C 139.108,268.593 142.775,268.76 146.5,268C 148.141,266.871 149.141,265.371 149.5,263.5 Z"/></g>
<g><path style="opacity:1" fill="#5bf0a2" d="M 238.5,201.5 C 235.788,206.123 232.622,210.457 229,214.5C 228.333,237.5 228.333,260.5 229,283.5C 230.274,286.939 231.774,290.272 233.5,293.5C 229.939,290.747 227.772,287.08 227,282.5C 226.333,260.167 226.333,237.833 227,215.5C 228.866,209.142 232.699,204.475 238.5,201.5 Z"/></g>
<g><path style="opacity:1" fill="#42b5f8" d="M 384.5,247.5 C 383.21,248.058 382.377,249.058 382,250.5C 381.831,257.524 381.331,264.524 380.5,271.5C 378.326,274.081 376.16,274.081 374,271.5C 373.333,260.5 373.333,249.5 374,238.5C 377.776,236.693 380.609,237.693 382.5,241.5C 383.107,241.376 383.44,241.043 383.5,240.5C 385.983,237.359 389.316,235.692 393.5,235.5C 396.302,235.971 397.636,237.638 397.5,240.5C 397.43,241.772 397.097,242.938 396.5,244C 392.293,244.735 388.293,245.901 384.5,247.5 Z"/></g>
<g><path style="opacity:0.744" fill="#74ebb1" d="M 157.5,236.5 C 156.508,236.328 155.842,236.662 155.5,237.5C 153.876,237.36 152.71,238.027 152,239.5C 151.667,246.833 151.333,254.167 151,261.5C 150.617,262.056 150.117,262.389 149.5,262.5C 150.271,254.547 150.771,246.547 151,238.5C 152.687,235.708 154.853,235.042 157.5,236.5 Z"/></g>
<g><path style="opacity:1" fill="#4db6f5" d="M 343.5,235.5 C 356.379,234.559 363.713,240.393 365.5,253C 365.646,255.034 364.98,256.701 363.5,258C 355.003,258.03 346.67,258.697 338.5,260C 339.5,263.667 341.833,266 345.5,267C 351.65,267.16 357.65,266.493 363.5,265C 365.414,269.794 363.747,272.794 358.5,274C 335.428,278.592 325.928,269.425 330,246.5C 332.926,240.801 337.426,237.134 343.5,235.5 Z M 353.5,244.5 C 354.487,246.473 355.487,248.473 356.5,250.5C 350.872,251.495 345.206,251.829 339.5,251.5C 339.269,248.215 340.603,245.715 343.5,244C 346.888,243.341 350.221,243.508 353.5,244.5 Z"/></g>
<g><path style="opacity:1" fill="#6abeee" d="M 105.5,202.5 C 107.911,203.268 110.244,203.602 112.5,203.5C 116.813,206.774 119.647,211.108 121,216.5C 121.667,238.167 121.667,259.833 121,281.5C 120.76,283.852 119.927,285.852 118.5,287.5C 119.104,277.021 119.437,266.521 119.5,256C 119.465,241.643 118.965,227.477 118,213.5C 116.667,213.5 115.333,213.5 114,213.5C 114.048,211.074 113.881,208.741 113.5,206.5C 109.695,206.789 106.362,206.289 103.5,205C 104.381,204.292 105.047,203.458 105.5,202.5 Z"/></g>
<g><path style="opacity:0.887" fill="#6edea4" d="M 189.5,237.5 C 189.216,239.415 189.549,241.081 190.5,242.5C 195.975,243.489 201.642,243.822 207.5,243.5C 207.843,245.483 207.176,246.817 205.5,247.5C 205.5,246.5 205.5,245.5 205.5,244.5C 200.191,245.351 194.858,245.185 189.5,244C 186.894,241.701 186.894,239.534 189.5,237.5 Z"/></g>
<g><path style="opacity:1" fill="#18e8a6" d="M 46.5,239.5 C 46.4366,247.971 47.4366,256.304 49.5,264.5C 48.4625,263.07 47.7959,261.403 47.5,259.5C 46.5102,255.595 45.8436,251.595 45.5,247.5C 45.5025,244.645 45.8359,241.978 46.5,239.5 Z"/></g>
<g><path style="opacity:1" fill="#16d693" d="M 252.5,236.5 C 255.032,240.472 256.699,244.805 257.5,249.5C 256.542,249.047 255.708,248.381 255,247.5C 254.586,243.649 253.752,239.983 252.5,236.5 Z"/></g>
<g><path style="opacity:0.821" fill="#5ce8a0" d="M 136.5,264.5 C 136.414,265.496 136.748,266.329 137.5,267C 139.387,267.78 141.054,267.613 142.5,266.5C 145.453,266.85 147.787,265.85 149.5,263.5C 149.141,265.371 148.141,266.871 146.5,268C 142.775,268.76 139.108,268.593 135.5,267.5C 134.668,258.518 134.168,249.518 134,240.5C 132.419,237.447 130.086,236.78 127,238.5C 126.333,246.833 126.333,255.167 127,263.5C 128.251,270.589 132.418,274.256 139.5,274.5C 142.849,273.488 146.183,272.488 149.5,271.5C 148.251,273.136 146.584,274.303 144.5,275C 136.915,277.143 131.082,274.976 127,268.5C 124.801,258.109 124.467,247.775 126,237.5C 131.295,234.151 134.628,235.485 136,241.5C 136.063,249.218 136.23,256.884 136.5,264.5 Z"/></g>
<g><path style="opacity:1" fill="#00d36c" d="M 300.5,222.5 C 300.5,222.167 300.5,221.833 300.5,221.5C 305.193,224.095 306.693,228.095 305,233.5C 299.206,247.199 293.206,260.866 287,274.5C 284.083,277.13 280.583,278.463 276.5,278.5C 274.443,278.564 272.777,277.898 271.5,276.5C 274.187,276.664 276.854,276.497 279.5,276C 280.851,274.383 282.518,273.216 284.5,272.5C 286.997,265.505 289.497,258.505 292,251.5C 293.767,250.183 295.101,248.516 296,246.5C 296.907,242.427 298.574,238.761 301,235.5C 301.212,232.242 301.712,229.076 302.5,226C 301.915,224.698 301.249,223.531 300.5,222.5 Z"/></g>
<g><path style="opacity:0.741" fill="#6db7e3" d="M 353.5,244.5 C 354.496,244.414 355.329,244.748 356,245.5C 357.079,248.063 357.579,250.729 357.5,253.5C 351.824,253.666 346.157,253.499 340.5,253C 337.8,252.051 336.967,250.217 338,247.5C 339.62,245.759 341.12,243.925 342.5,242C 346.152,241.501 349.818,241.335 353.5,241.5C 353.5,242.5 353.5,243.5 353.5,244.5 Z M 353.5,244.5 C 350.221,243.508 346.888,243.341 343.5,244C 340.603,245.715 339.269,248.215 339.5,251.5C 345.206,251.829 350.872,251.495 356.5,250.5C 355.487,248.473 354.487,246.473 353.5,244.5 Z"/></g>
<g><path style="opacity:1" fill="#67b0db" d="M 383.5,240.5 C 383.44,241.043 383.107,241.376 382.5,241.5C 380.609,237.693 377.776,236.693 374,238.5C 373.333,249.5 373.333,260.5 374,271.5C 376.16,274.081 378.326,274.081 380.5,271.5C 381.331,264.524 381.831,257.524 382,250.5C 382.377,249.058 383.21,248.058 384.5,247.5C 382.829,256.035 381.996,264.701 382,273.5C 379,276.167 376,276.167 373,273.5C 372.333,261.5 372.333,249.5 373,237.5C 377.472,234.808 380.972,235.808 383.5,240.5 Z"/></g>
<g><path style="opacity:1" fill="#2def8e" d="M 178.5,238.5 C 179.495,249.988 179.828,261.655 179.5,273.5C 178.688,274.993 177.355,275.66 175.5,275.5C 173.645,275.66 172.312,274.993 171.5,273.5C 171.172,261.988 171.505,250.654 172.5,239.5C 172.333,250.505 172.5,261.505 173,272.5C 174.458,273.747 175.958,273.747 177.5,272.5C 178.499,261.186 178.832,249.853 178.5,238.5 Z"/></g>
<g><path style="opacity:1" fill="#05e97f" d="M 248.5,219.5 C 248.167,220.167 247.833,220.833 247.5,221.5C 246.378,223.288 246.211,225.288 247,227.5C 248.062,230.029 248.895,232.696 249.5,235.5C 250.183,235.863 250.85,236.196 251.5,236.5C 251.833,236.5 252.167,236.5 252.5,236.5C 253.752,239.983 254.586,243.649 255,247.5C 255.708,248.381 256.542,249.047 257.5,249.5C 257.833,249.5 258.167,249.5 258.5,249.5C 258.759,252.272 259.759,254.605 261.5,256.5C 261.527,258.199 262.194,259.533 263.5,260.5C 264.209,264.635 265.875,268.302 268.5,271.5C 268.738,273.404 269.738,274.738 271.5,275.5C 271.5,275.833 271.5,276.167 271.5,276.5C 269.041,276.69 267.374,275.69 266.5,273.5C 260.48,265.406 255.98,256.406 253,246.5C 251.185,242.204 248.852,238.204 246,234.5C 245.333,229.833 245.333,225.167 246,220.5C 246.671,219.748 247.504,219.414 248.5,219.5 Z"/></g>
<g><path style="opacity:1" fill="#2888bb" d="M 96.5,234.5 C 99.1359,234.491 100.469,235.825 100.5,238.5C 101.919,246.867 101.753,255.201 100,263.5C 97.2648,268.522 95.0981,273.689 93.5,279C 94.2747,281.608 95.2747,284.108 96.5,286.5C 96.1316,288.175 95.1316,289.175 93.5,289.5C 93.8016,286.941 93.4682,284.607 92.5,282.5C 91.7281,281.306 90.7281,280.306 89.5,279.5C 89.2671,277.938 88.6005,276.605 87.5,275.5C 87.4606,274.417 87.1272,273.417 86.5,272.5C 91.4118,269.27 94.7451,264.937 96.5,259.5C 98.2517,259.582 99.2517,258.749 99.5,257C 98.7239,250.537 98.2239,244.037 98,237.5C 97.6174,236.944 97.1174,236.611 96.5,236.5C 96.5,235.833 96.5,235.167 96.5,234.5 Z"/></g>
<g><path style="opacity:1" fill="#56db97" d="M 214.5,248.5 C 211.253,254.083 207.253,259.083 202.5,263.5C 204.566,259.711 206.899,256.044 209.5,252.5C 211.186,251.143 212.852,249.81 214.5,248.5 Z"/></g>
<g><path style="opacity:1" fill="#1dc8b4" d="M 258.5,249.5 C 260.241,251.395 261.241,253.728 261.5,256.5C 259.759,254.605 258.759,252.272 258.5,249.5 Z"/></g>
<g><path style="opacity:1" fill="#4fb5f3" d="M 413.5,235.5 C 419.815,234.871 425.648,236.204 431,239.5C 431.743,241.441 431.576,243.274 430.5,245C 424.944,243.942 419.278,243.608 413.5,244C 411.398,245.733 411.065,247.733 412.5,250C 417.085,251.585 421.752,252.918 426.5,254C 435.256,259.859 435.589,266.193 427.5,273C 420.317,275.936 412.984,276.27 405.5,274C 401.18,272.695 399.847,270.029 401.5,266C 402.5,265.833 403.5,265.667 404.5,265.5C 408.586,266.765 412.752,267.765 417,268.5C 419.316,268.066 421.316,267.066 423,265.5C 423.711,263.633 423.211,262.133 421.5,261C 415.604,260.074 409.938,258.408 404.5,256C 398.605,245.288 401.605,238.454 413.5,235.5 Z"/></g>
<g><path style="opacity:1" fill="#37b8f6" d="M 257.5,223.5 C 257.427,225.027 258.094,226.027 259.5,226.5C 259.5,227.167 259.5,227.833 259.5,228.5C 259.12,230.698 259.787,232.365 261.5,233.5C 263.307,238.448 265.641,243.115 268.5,247.5C 269.11,248.391 269.443,249.391 269.5,250.5C 269.575,253.407 270.409,256.073 272,258.5C 273.011,259.337 274.178,259.67 275.5,259.5C 276.639,256.996 277.306,254.33 277.5,251.5C 277.833,251.5 278.167,251.5 278.5,251.5C 279.065,249.58 280.065,247.913 281.5,246.5C 281.5,248.167 281.5,249.833 281.5,251.5C 283.677,251.414 285.677,250.747 287.5,249.5C 289.691,243.616 292.025,237.783 294.5,232C 293.907,228.849 293.407,225.682 293,222.5C 292.617,223.056 292.117,223.389 291.5,223.5C 291.5,222.833 291.5,222.167 291.5,221.5C 294.167,220.167 296.833,220.167 299.5,221.5C 297.197,228.027 295.031,234.694 293,241.5C 291.498,245.178 289.498,248.511 287,251.5C 284.586,258.247 282.086,264.914 279.5,271.5C 275.866,274.155 272.199,274.155 268.5,271.5C 267.4,267.515 265.733,263.849 263.5,260.5C 262.194,259.533 261.527,258.199 261.5,256.5C 261.241,253.728 260.241,251.395 258.5,249.5C 258.167,249.5 257.833,249.5 257.5,249.5C 256.699,244.805 255.032,240.472 252.5,236.5C 252.167,236.5 251.833,236.5 251.5,236.5C 251.479,232.779 250.479,229.446 248.5,226.5C 248.261,224.533 248.594,222.699 249.5,221C 250.333,220.833 251.167,220.667 252,220.5C 253.841,221.562 255.674,222.562 257.5,223.5 Z"/></g>
<g><path style="opacity:1" fill="#20d4ae" d="M 281.5,244.5 C 281.5,245.167 281.5,245.833 281.5,246.5C 280.065,247.913 279.065,249.58 278.5,251.5C 278.5,250.833 278.5,250.167 278.5,249.5C 278.273,247.067 279.273,245.401 281.5,244.5 Z"/></g>
<g><path style="opacity:1" fill="#2bc5de" d="M 287.5,231.5 C 286.615,235.936 285.615,240.269 284.5,244.5C 283.5,244.5 282.5,244.5 281.5,244.5C 282.757,239.767 284.757,235.434 287.5,231.5 Z"/></g>
<g><path style="opacity:1" fill="#37b7fc" d="M 281.5,246.5 C 281.5,245.833 281.5,245.167 281.5,244.5C 282.5,244.5 283.5,244.5 284.5,244.5C 285.615,240.269 286.615,235.936 287.5,231.5C 289.074,229.898 289.741,227.898 289.5,225.5C 289.833,224.5 290.5,223.833 291.5,223.5C 292.117,223.389 292.617,223.056 293,222.5C 293.407,225.682 293.907,228.849 294.5,232C 292.025,237.783 289.691,243.616 287.5,249.5C 285.677,250.747 283.677,251.414 281.5,251.5C 281.5,249.833 281.5,248.167 281.5,246.5 Z"/></g>
<g><path style="opacity:1" fill="#0db776" d="M 259.5,226.5 C 261.945,228.256 263.778,230.589 265,233.5C 266.479,238.114 267.646,242.78 268.5,247.5C 265.641,243.115 263.307,238.448 261.5,233.5C 261.88,231.302 261.213,229.635 259.5,228.5C 259.5,227.833 259.5,227.167 259.5,226.5 Z"/></g>
<g><path style="opacity:1" fill="#25b7bf" d="M 259.5,228.5 C 261.213,229.635 261.88,231.302 261.5,233.5C 259.787,232.365 259.12,230.698 259.5,228.5 Z"/></g>
<g><path style="opacity:1" fill="#25cecb" d="M 289.5,225.5 C 289.741,227.898 289.074,229.898 287.5,231.5C 287.259,229.102 287.926,227.102 289.5,225.5 Z"/></g>
<g><path style="opacity:1" fill="#17b08e" d="M 269.5,250.5 C 270.81,252.435 272.143,254.435 273.5,256.5C 275.541,255.293 276.874,253.626 277.5,251.5C 277.306,254.33 276.639,256.996 275.5,259.5C 274.178,259.67 273.011,259.337 272,258.5C 270.409,256.073 269.575,253.407 269.5,250.5 Z"/></g>
<g><path style="opacity:1" fill="#26bacd" d="M 49.5,231.5 C 48.2493,234.132 47.2493,236.799 46.5,239.5C 45.8359,241.978 45.5025,244.645 45.5,247.5C 45.8436,251.595 46.5102,255.595 47.5,259.5C 46.5041,259.586 45.6708,259.252 45,258.5C 44.3333,251.5 44.3333,244.5 45,237.5C 45.8809,234.986 47.3809,232.986 49.5,231.5 Z"/></g>
<g><path style="opacity:1" fill="#01b860" d="M 300.5,222.5 C 301.249,223.531 301.915,224.698 302.5,226C 301.712,229.076 301.212,232.242 301,235.5C 298.574,238.761 296.907,242.427 296,246.5C 295.101,248.516 293.767,250.183 292,251.5C 289.497,258.505 286.997,265.505 284.5,272.5C 282.518,273.216 280.851,274.383 279.5,276C 276.854,276.497 274.187,276.664 271.5,276.5C 271.5,276.167 271.5,275.833 271.5,275.5C 273.167,275.5 274.833,275.5 276.5,275.5C 279.188,274.976 280.688,273.309 281,270.5C 281.333,270.833 281.667,271.167 282,271.5C 284.367,265.276 286.533,258.943 288.5,252.5C 290.664,249.51 292.83,246.51 295,243.5C 295.92,240.899 296.587,238.232 297,235.5C 297.333,235.833 297.667,236.167 298,236.5C 299.792,232 300.625,227.333 300.5,222.5 Z"/></g>
<g><path style="opacity:1" fill="#54b5ef" d="M 467.5,239.5 C 472.269,242.531 474.602,247.031 474.5,253C 474.167,254.5 473.833,256 473.5,257.5C 465.222,258.47 456.889,258.803 448.5,258.5C 448.82,262.987 451.153,265.82 455.5,267C 461.357,267.367 467.023,266.7 472.5,265C 474.978,266.938 475.145,269.105 473,271.5C 465.539,275.664 457.706,276.497 449.5,274C 438.842,268.121 435.342,259.288 439,247.5C 444.546,236.982 453.046,233.482 464.5,237C 465.942,237.377 466.942,238.21 467.5,239.5 Z M 465.5,248.5 C 465.5,249.5 465.5,250.5 465.5,251.5C 459.794,251.829 454.128,251.495 448.5,250.5C 450.612,244.111 454.945,241.944 461.5,244C 463.07,245.397 464.404,246.897 465.5,248.5 Z"/></g>
<g><path style="opacity:1" fill="#39b5fc" d="M 467.5,239.5 C 467.5,240.833 467.5,242.167 467.5,243.5C 468.822,243.33 469.989,243.663 471,244.5C 472.266,248.395 472.766,252.395 472.5,256.5C 463.812,256.413 455.146,256.747 446.5,257.5C 446.896,260.482 446.229,263.149 444.5,265.5C 445.563,267.366 444.896,267.866 442.5,267C 440.951,263.526 439.951,259.859 439.5,256C 440.489,252.553 441.156,249.053 441.5,245.5C 442.552,245.649 443.552,245.483 444.5,245C 445.88,243.075 447.38,241.241 449,239.5C 450.978,240.816 452.478,240.316 453.5,238C 458.293,237.349 462.96,237.849 467.5,239.5 Z M 465.5,248.5 C 464.404,246.897 463.07,245.397 461.5,244C 454.945,241.944 450.612,244.111 448.5,250.5C 454.128,251.495 459.794,251.829 465.5,251.5C 465.5,250.5 465.5,249.5 465.5,248.5 Z"/></g>
<g><path style="opacity:1" fill="#6fb6e3" d="M 465.5,248.5 C 466.801,249.884 466.801,251.384 465.5,253C 459.509,253.499 453.509,253.666 447.5,253.5C 447.833,250.167 448.167,246.833 448.5,243.5C 452.693,241.925 457.026,241.425 461.5,242C 463.923,243.571 465.256,245.737 465.5,248.5 Z M 465.5,248.5 C 464.404,246.897 463.07,245.397 461.5,244C 454.945,241.944 450.612,244.111 448.5,250.5C 454.128,251.495 459.794,251.829 465.5,251.5C 465.5,250.5 465.5,249.5 465.5,248.5 Z"/></g>
<g><path style="opacity:1" fill="#21c9ba" d="M 263.5,260.5 C 265.733,263.849 267.4,267.515 268.5,271.5C 265.875,268.302 264.209,264.635 263.5,260.5 Z"/></g>
<g><path style="opacity:0.91" fill="#7cdaa9" d="M 136.5,264.5 C 138.142,266.081 140.142,266.747 142.5,266.5C 141.054,267.613 139.387,267.78 137.5,267C 136.748,266.329 136.414,265.496 136.5,264.5 Z"/></g>
<g><path style="opacity:1" fill="#65f0a5" d="M 321.5,207.5 C 323.837,209.965 325.337,212.965 326,216.5C 326.667,238.167 326.667,259.833 326,281.5C 325.76,283.852 324.927,285.852 323.5,287.5C 324.628,263.19 324.794,238.857 324,214.5C 322.587,212.348 321.754,210.014 321.5,207.5 Z"/></g>
<g><path style="opacity:1" fill="#08fb86" d="M 215.5,247.5 C 215.5,248.167 215.167,248.5 214.5,248.5C 212.852,249.81 211.186,251.143 209.5,252.5C 206.899,256.044 204.566,259.711 202.5,263.5C 201.167,263.5 200.5,264.167 200.5,265.5C 199.596,266.209 199.263,267.209 199.5,268.5C 205.833,268.5 212.167,268.5 218.5,268.5C 218.5,270.167 218.5,271.833 218.5,273.5C 209.249,273.818 200.083,273.485 191,272.5C 190.516,270.087 190.85,267.754 192,265.5C 194.667,261.5 198,258.167 202,255.5C 202.921,252.664 204.088,249.998 205.5,247.5C 207.176,246.817 207.843,245.483 207.5,243.5C 201.642,243.822 195.975,243.489 190.5,242.5C 190.5,241.167 190.5,239.833 190.5,238.5C 199.173,238.334 207.84,238.5 216.5,239C 217.081,239.893 217.415,240.893 217.5,242C 217.046,243.939 216.379,245.772 215.5,247.5 Z"/></g>
<g><path style="opacity:0.376" fill="#83deb0" d="M 202.5,263.5 C 202.586,264.496 202.252,265.329 201.5,266C 207.348,266.173 213.015,266.673 218.5,267.5C 212.074,268.12 206.074,267.453 200.5,265.5C 200.5,264.167 201.167,263.5 202.5,263.5 Z"/></g>
<g><path style="opacity:1" fill="#19dba2" d="M 49.5,264.5 C 52.4797,264.241 54.313,265.574 55,268.5C 57.0709,270.437 59.2375,272.104 61.5,273.5C 57.0691,272.409 53.4024,270.076 50.5,266.5C 50.1667,265.833 49.8333,265.167 49.5,264.5 Z"/></g>
<g><path style="opacity:1" fill="#08fa89" d="M 63.5,219.5 C 69.0262,219.179 74.3595,219.512 79.5,220.5C 82.666,223.553 86.3327,225.886 90.5,227.5C 91.2719,228.694 92.2719,229.694 93.5,230.5C 93.5,230.833 93.5,231.167 93.5,231.5C 94.6557,233.824 95.6557,236.157 96.5,238.5C 97.804,244.266 97.804,249.933 96.5,255.5C 94.8076,263.062 90.4742,268.895 83.5,273C 84.9839,273.662 86.3172,274.496 87.5,275.5C 88.6005,276.605 89.2671,277.938 89.5,279.5C 90.299,282.43 90.6323,285.43 90.5,288.5C 88.6916,288.509 87.0249,288.009 85.5,287C 84.6159,285.28 83.2825,284.114 81.5,283.5C 81.2671,281.938 80.6005,280.605 79.5,279.5C 78.8707,277.003 77.204,275.67 74.5,275.5C 70.6836,274.518 66.6836,273.851 62.5,273.5C 62.1667,273.5 61.8333,273.5 61.5,273.5C 59.2375,272.104 57.0709,270.437 55,268.5C 54.313,265.574 52.4797,264.241 49.5,264.5C 47.4366,256.304 46.4366,247.971 46.5,239.5C 47.2493,236.799 48.2493,234.132 49.5,231.5C 51.8777,229.122 53.8777,226.455 55.5,223.5C 58.5779,223.38 61.2446,222.38 63.5,220.5C 63.5,220.167 63.5,219.833 63.5,219.5 Z"/></g>
<g><path style="opacity:1" fill="#1adaaa" d="M 63.5,265.5 C 68.5,266.833 73.5,266.833 78.5,265.5C 76.5379,267.017 74.2046,267.684 71.5,267.5C 68.5143,267.618 65.8476,266.952 63.5,265.5 Z"/></g>
<g><path style="opacity:1" fill="#21a8be" d="M 60.5,261.5 C 61.1667,261.5 61.8333,261.5 62.5,261.5C 62.9528,262.458 63.6195,263.292 64.5,264C 69.4889,264.499 74.4889,264.666 79.5,264.5C 79.5,264.833 79.5,265.167 79.5,265.5C 79.1667,265.5 78.8333,265.5 78.5,265.5C 73.5,266.833 68.5,266.833 63.5,265.5C 62.5,264.167 61.5,262.833 60.5,261.5 Z"/></g>
<g><path style="opacity:1" fill="#19d1b7" d="M 83.5,260.5 C 82.9202,262.749 81.5869,264.415 79.5,265.5C 79.5,265.167 79.5,264.833 79.5,264.5C 80.1667,263.5 80.8333,262.5 81.5,261.5C 82.1667,261.167 82.8333,260.833 83.5,260.5 Z"/></g>
<g><path style="opacity:1" fill="#1ecabf" d="M 85.5,255.5 C 85.8799,257.698 85.2132,259.365 83.5,260.5C 83.7959,258.597 84.4625,256.93 85.5,255.5 Z"/></g>
<g><path style="opacity:1" fill="#25b9c7" d="M 84.5,235.5 C 85.1667,236.167 85.8333,236.833 86.5,237.5C 86.9747,241.143 87.308,244.81 87.5,248.5C 87.4714,251.269 86.8048,253.603 85.5,255.5C 85.8214,249.974 85.4881,244.64 84.5,239.5C 84.5,238.167 84.5,236.833 84.5,235.5 Z"/></g>
<g><path style="opacity:1" fill="#179691" d="M 58.5,235.5 C 57.669,242.131 57.3357,248.798 57.5,255.5C 56.8826,255.389 56.3826,255.056 56,254.5C 55.3333,249.5 55.3333,244.5 56,239.5C 56.9344,238.142 57.7677,236.808 58.5,235.5 Z"/></g>
<g><path style="opacity:1" fill="#2686b8" d="M 75.5,228.5 C 76.5676,229.434 77.901,229.768 79.5,229.5C 79.5,229.833 79.5,230.167 79.5,230.5C 79.631,231.239 79.4643,231.906 79,232.5C 76.9255,231.866 74.7588,231.532 72.5,231.5C 69.9627,231.397 67.6294,231.897 65.5,233C 66.3081,233.308 66.9747,233.808 67.5,234.5C 64.409,236.241 62.7423,238.907 62.5,242.5C 61.4873,249.12 61.4873,255.453 62.5,261.5C 61.8333,261.5 61.1667,261.5 60.5,261.5C 58.6535,259.97 57.6535,257.97 57.5,255.5C 57.3357,248.798 57.669,242.131 58.5,235.5C 60.8333,233.833 62.8333,231.833 64.5,229.5C 64.8333,229.5 65.1667,229.5 65.5,229.5C 68.7644,228.676 72.0977,228.342 75.5,228.5 Z"/></g>
<g><path style="opacity:1" fill="#37b2f9" d="M 84.5,239.5 C 85.4881,244.64 85.8214,249.974 85.5,255.5C 84.4625,256.93 83.7959,258.597 83.5,260.5C 82.8333,260.833 82.1667,261.167 81.5,261.5C 79.3235,262.448 76.8235,263.115 74,263.5C 71.5303,263.66 69.3636,262.993 67.5,261.5C 62.0724,253.549 62.4058,245.716 68.5,238C 74.529,235.164 79.529,236.331 83.5,241.5C 84.2975,241.043 84.6309,240.376 84.5,239.5 Z"/></g>
<g><path style="opacity:1" fill="#309dda" d="M 79.5,230.5 C 81.5273,231.861 83.194,233.527 84.5,235.5C 84.5,236.833 84.5,238.167 84.5,239.5C 84.6309,240.376 84.2975,241.043 83.5,241.5C 79.529,236.331 74.529,235.164 68.5,238C 62.4058,245.716 62.0724,253.549 67.5,261.5C 69.3636,262.993 71.5303,263.66 74,263.5C 76.8235,263.115 79.3235,262.448 81.5,261.5C 80.8333,262.5 80.1667,263.5 79.5,264.5C 74.4889,264.666 69.4889,264.499 64.5,264C 63.6195,263.292 62.9528,262.458 62.5,261.5C 61.4873,255.453 61.4873,249.12 62.5,242.5C 62.7423,238.907 64.409,236.241 67.5,234.5C 66.9747,233.808 66.3081,233.308 65.5,233C 67.6294,231.897 69.9627,231.397 72.5,231.5C 74.7588,231.532 76.9255,231.866 79,232.5C 79.4643,231.906 79.631,231.239 79.5,230.5 Z"/></g>
<g><path style="opacity:1" fill="#16e29a" d="M 79.5,230.5 C 79.5,230.167 79.5,229.833 79.5,229.5C 83.5538,230.687 85.8872,233.353 86.5,237.5C 85.8333,236.833 85.1667,236.167 84.5,235.5C 83.194,233.527 81.5273,231.861 79.5,230.5 Z"/></g>
<g><path style="opacity:1" fill="#119f8f" d="M 64.5,229.5 C 62.8333,231.833 60.8333,233.833 58.5,235.5C 59.5,232.5 61.5,230.5 64.5,229.5 Z"/></g>
<g><path style="opacity:1" fill="#17c09a" d="M 75.5,228.5 C 72.0977,228.342 68.7644,228.676 65.5,229.5C 65.6107,228.883 65.944,228.383 66.5,228C 69.6965,227.195 72.6965,227.362 75.5,228.5 Z"/></g>
<g><path style="opacity:1" fill="#33a9eb" d="M 63.5,219.5 C 71.9901,218.343 80.6567,218.176 89.5,219C 92.7076,221.685 96.3743,223.518 100.5,224.5C 102.5,226.5 104.5,228.5 106.5,230.5C 106.167,231.167 105.833,231.833 105.5,232.5C 108.862,237.133 110.196,242.3 109.5,248C 108.978,254.556 107.978,261.056 106.5,267.5C 104.941,268.074 103.441,268.74 102,269.5C 101.639,272.525 101.139,275.525 100.5,278.5C 100.804,280.441 101.637,282.107 103,283.5C 103.157,285.995 103.324,288.328 103.5,290.5C 103.023,291.478 102.357,292.311 101.5,293C 102.888,293.889 102.722,294.389 101,294.5C 97.5592,293.618 94.0592,293.284 90.5,293.5C 88.1497,292.89 88.483,292.556 91.5,292.5C 91.5,291.5 91.5,290.5 91.5,289.5C 92.1667,289.5 92.8333,289.5 93.5,289.5C 95.1316,289.175 96.1316,288.175 96.5,286.5C 95.2747,284.108 94.2747,281.608 93.5,279C 95.0981,273.689 97.2648,268.522 100,263.5C 101.753,255.201 101.919,246.867 100.5,238.5C 100.469,235.825 99.1359,234.491 96.5,234.5C 95.8333,233.167 94.8333,232.167 93.5,231.5C 93.5,231.167 93.5,230.833 93.5,230.5C 94.3848,225.717 92.3848,223.384 87.5,223.5C 85.0206,222.026 82.3539,221.026 79.5,220.5C 74.3595,219.512 69.0262,219.179 63.5,219.5 Z"/></g>
<g><path style="opacity:1" fill="#119989" d="M 96.5,255.5 C 96.5,256.833 96.5,258.167 96.5,259.5C 94.7451,264.937 91.4118,269.27 86.5,272.5C 87.1272,273.417 87.4606,274.417 87.5,275.5C 86.3172,274.496 84.9839,273.662 83.5,273C 90.4742,268.895 94.8076,263.062 96.5,255.5 Z"/></g>
<g><path style="opacity:1" fill="#52dc96" d="M 155.5,237.5 C 155.842,236.662 156.508,236.328 157.5,236.5C 159.411,236.574 160.578,237.574 161,239.5C 161.667,250.167 161.667,260.833 161,271.5C 160.49,274.257 158.823,275.591 156,275.5C 153.169,275.155 151.003,273.822 149.5,271.5C 149.56,270.957 149.893,270.624 150.5,270.5C 152.927,272.959 155.927,273.959 159.5,273.5C 159.667,261.829 159.5,250.162 159,238.5C 157.989,237.663 156.822,237.33 155.5,237.5 Z"/></g>
<g><path style="opacity:1" fill="#55e39a" d="M 205.5,247.5 C 204.088,249.998 202.921,252.664 202,255.5C 198,258.167 194.667,261.5 192,265.5C 190.85,267.754 190.516,270.087 191,272.5C 200.083,273.485 209.249,273.818 218.5,273.5C 218.5,271.833 218.5,270.167 218.5,268.5C 212.167,268.5 205.833,268.5 199.5,268.5C 199.263,267.209 199.596,266.209 200.5,265.5C 206.074,267.453 212.074,268.12 218.5,267.5C 222.325,270.151 221.991,272.651 217.5,275C 209.833,275.667 202.167,275.667 194.5,275C 188.953,275.296 187.12,272.796 189,267.5C 194.364,260.644 199.864,253.977 205.5,247.5 Z"/></g>
<g><path style="opacity:0.004" fill="#fefffe" d="M 384.5,273.5 C 385.833,274.167 385.833,274.167 384.5,273.5 Z"/></g>
<g><path style="opacity:1" fill="#16d29d" d="M 62.5,273.5 C 66.6836,273.851 70.6836,274.518 74.5,275.5C 71.1501,275.665 67.8168,275.498 64.5,275C 63.5842,274.722 62.9175,274.222 62.5,273.5 Z"/></g>
<g><path style="opacity:1" fill="#25c0c2" d="M 268.5,271.5 C 272.199,274.155 275.866,274.155 279.5,271.5C 278.5,272.833 277.5,274.167 276.5,275.5C 274.833,275.5 273.167,275.5 271.5,275.5C 269.738,274.738 268.738,273.404 268.5,271.5 Z"/></g>
<g><path style="opacity:1" fill="#14b59c" d="M 74.5,275.5 C 77.204,275.67 78.8707,277.003 79.5,279.5C 77.111,279.021 75.4443,277.688 74.5,275.5 Z"/></g>
<g><path style="opacity:1" fill="#2e9cd4" d="M 50.5,266.5 C 53.4024,270.076 57.0691,272.409 61.5,273.5C 61.8333,273.5 62.1667,273.5 62.5,273.5C 62.9175,274.222 63.5842,274.722 64.5,275C 67.8168,275.498 71.1501,275.665 74.5,275.5C 75.4443,277.688 77.111,279.021 79.5,279.5C 80.6005,280.605 81.2671,281.938 81.5,283.5C 82.4734,285.3 83.4734,287.134 84.5,289C 86.8098,289.497 89.1432,289.663 91.5,289.5C 91.5,290.5 91.5,291.5 91.5,292.5C 88.483,292.556 88.1497,292.89 90.5,293.5C 88.6796,295.448 86.3462,296.448 83.5,296.5C 86.0478,293.174 85.2145,290.507 81,288.5C 80.5065,286.866 80.3398,285.199 80.5,283.5C 70.9204,281.585 61.5871,278.752 52.5,275C 50.6863,272.519 50.0196,269.685 50.5,266.5 Z"/></g>
<g><path style="opacity:0.004" fill="#fefffe" d="M 340.5,283.5 C 341.833,284.167 341.833,284.167 340.5,283.5 Z"/></g>
<g><path style="opacity:0.004" fill="#fefffe" d="M 421.5,284.5 C 422.833,285.167 422.833,285.167 421.5,284.5 Z"/></g>
<g><path style="opacity:0.004" fill="#fefffe" d="M 16.5,285.5 C 17.8333,286.167 17.8333,286.167 16.5,285.5 Z"/></g>
<g><path style="opacity:1" fill="#1be89f" d="M 89.5,279.5 C 90.7281,280.306 91.7281,281.306 92.5,282.5C 92.702,284.95 92.3686,287.283 91.5,289.5C 89.1432,289.663 86.8098,289.497 84.5,289C 83.4734,287.134 82.4734,285.3 81.5,283.5C 83.2825,284.114 84.6159,285.28 85.5,287C 87.0249,288.009 88.6916,288.509 90.5,288.5C 90.6323,285.43 90.299,282.43 89.5,279.5 Z"/></g>
<g><path style="opacity:1" fill="#16b9a3" d="M 92.5,282.5 C 93.4682,284.607 93.8016,286.941 93.5,289.5C 92.8333,289.5 92.1667,289.5 91.5,289.5C 92.3686,287.283 92.702,284.95 92.5,282.5 Z"/></g>
<g><path style="opacity:0.004" fill="#fefffe" d="M 163.5,285.5 C 164.833,286.167 164.833,286.167 163.5,285.5 Z"/></g>
<g><path style="opacity:0.004" fill="#fefffe" d="M 160.5,289.5 C 161.833,290.167 161.833,290.167 160.5,289.5 Z"/></g>
<g><path style="opacity:1" fill="#3dee95" d="M 323.5,288.5 C 320.505,294.325 315.838,298.158 309.5,300C 287.5,300.667 265.5,300.667 243.5,300C 239.28,299.065 235.947,296.899 233.5,293.5C 236.884,293.864 239.884,295.197 242.5,297.5C 265.493,298.666 288.493,298.833 311.5,298C 314.646,293.871 318.646,290.704 323.5,288.5 Z"/></g>
<g><path style="opacity:0.944" fill="#5ab0e0" d="M 29.5,294.5 C 32.8107,294.909 35.8107,296.076 38.5,298C 54.8409,298.297 71.1742,298.797 87.5,299.5C 93.5163,299.198 99.5163,298.698 105.5,298C 107.441,296.097 109.774,295.264 112.5,295.5C 109.84,297.497 106.84,298.997 103.5,300C 81.8333,300.667 60.1667,300.667 38.5,300C 35.1019,298.643 32.1019,296.81 29.5,294.5 Z"/></g>
<g><path style="opacity:0.004" fill="#fefffe" d="M 95.5,308.5 C 96.8333,309.167 96.8333,309.167 95.5,308.5 Z"/></g>
<g><path style="opacity:0.004" fill="#fefffe" d="M 478.5,312.5 C 479.833,313.167 479.833,313.167 478.5,312.5 Z"/></g>
<g><path style="opacity:0.004" fill="#fefffe" d="M 160.5,315.5 C 161.833,316.167 161.833,316.167 160.5,315.5 Z"/></g>
<g><path style="opacity:0.004" fill="#fefffe" d="M 382.5,316.5 C 383.833,317.167 383.833,317.167 382.5,316.5 Z"/></g>
<g><path style="opacity:0.004" fill="#fefffe" d="M 442.5,333.5 C 443.833,334.167 443.833,334.167 442.5,333.5 Z"/></g>
<g><path style="opacity:0.004" fill="#fefffe" d="M 320.5,334.5 C 321.833,335.167 321.833,335.167 320.5,334.5 Z"/></g>
<g><path style="opacity:0.004" fill="#fefffe" d="M 223.5,340.5 C 224.833,341.167 224.833,341.167 223.5,340.5 Z"/></g>
<g><path style="opacity:0.004" fill="#fefffe" d="M 409.5,340.5 C 410.833,341.167 410.833,341.167 409.5,340.5 Z"/></g>
<g><path style="opacity:0.004" fill="#fefffe" d="M 336.5,344.5 C 337.833,345.167 337.833,345.167 336.5,344.5 Z"/></g>
<g><path style="opacity:0.004" fill="#fefffe" d="M 19.5,345.5 C 20.8333,346.167 20.8333,346.167 19.5,345.5 Z"/></g>
<g><path style="opacity:0.004" fill="#fefffe" d="M 343.5,352.5 C 344.833,353.167 344.833,353.167 343.5,352.5 Z"/></g>
<g><path style="opacity:0.004" fill="#fefffe" d="M 208.5,353.5 C 209.833,354.167 209.833,354.167 208.5,353.5 Z"/></g>
<g><path style="opacity:0.004" fill="#fefffe" d="M 319.5,356.5 C 320.833,357.167 320.833,357.167 319.5,356.5 Z"/></g>
<g><path style="opacity:0.004" fill="#fefffe" d="M 306.5,368.5 C 307.833,369.167 307.833,369.167 306.5,368.5 Z"/></g>
<g><path style="opacity:0.004" fill="#fefffe" d="M 124.5,369.5 C 125.833,370.167 125.833,370.167 124.5,369.5 Z"/></g>
<g><path style="opacity:0.004" fill="#fefffe" d="M 166.5,375.5 C 167.833,376.167 167.833,376.167 166.5,375.5 Z"/></g>
<g><path style="opacity:0.004" fill="#fefffe" d="M 336.5,384.5 C 337.833,385.167 337.833,385.167 336.5,384.5 Z"/></g>
<g><path style="opacity:0.004" fill="#fefffe" d="M 39.5,390.5 C 40.8333,391.167 40.8333,391.167 39.5,390.5 Z"/></g>
<g><path style="opacity:0.004" fill="#fefffe" d="M 428.5,390.5 C 429.833,391.167 429.833,391.167 428.5,390.5 Z"/></g>
<g><path style="opacity:0.004" fill="#fefffe" d="M 46.5,398.5 C 47.8333,399.167 47.8333,399.167 46.5,398.5 Z"/></g>
<g><path style="opacity:0.004" fill="#fefffe" d="M 169.5,401.5 C 170.833,402.167 170.833,402.167 169.5,401.5 Z"/></g>
<g><path style="opacity:0.004" fill="#fefffe" d="M 330.5,408.5 C 331.833,409.167 331.833,409.167 330.5,408.5 Z"/></g>
<g><path style="opacity:0.004" fill="#fefffe" d="M 392.5,411.5 C 393.833,412.167 393.833,412.167 392.5,411.5 Z"/></g>
<g><path style="opacity:0.004" fill="#fefffe" d="M 359.5,421.5 C 360.833,422.167 360.833,422.167 359.5,421.5 Z"/></g>
<g><path style="opacity:0.004" fill="#fefffe" d="M 368.5,424.5 C 369.833,425.167 369.833,425.167 368.5,424.5 Z"/></g>
<g><path style="opacity:0.004" fill="#fefffe" d="M 176.5,428.5 C 177.833,429.167 177.833,429.167 176.5,428.5 Z"/></g>
<g><path style="opacity:0.004" fill="#fefffe" d="M 290.5,433.5 C 291.833,434.167 291.833,434.167 290.5,433.5 Z"/></g>
<g><path style="opacity:0.004" fill="#fefffe" d="M 33.5,435.5 C 34.8333,436.167 34.8333,436.167 33.5,435.5 Z"/></g>
<g><path style="opacity:0.004" fill="#fefffe" d="M 201.5,435.5 C 202.833,436.167 202.833,436.167 201.5,435.5 Z"/></g>
<g><path style="opacity:0.004" fill="#fefffe" d="M 297.5,443.5 C 298.833,444.167 298.833,444.167 297.5,443.5 Z"/></g>
<g><path style="opacity:0.004" fill="#fefffe" d="M 154.5,445.5 C 155.833,446.167 155.833,446.167 154.5,445.5 Z"/></g>
<g><path style="opacity:0.004" fill="#fefffe" d="M 170.5,452.5 C 171.833,453.167 171.833,453.167 170.5,452.5 Z"/></g>
<g><path style="opacity:0.004" fill="#fefffe" d="M 179.5,460.5 C 180.833,461.167 180.833,461.167 179.5,460.5 Z"/></g>
<g><path style="opacity:0.004" fill="#fefffe" d="M 391.5,460.5 C 392.833,461.167 392.833,461.167 391.5,460.5 Z"/></g>
<g><path style="opacity:0.004" fill="#fefffe" d="M 66.5,465.5 C 67.8333,466.167 67.8333,466.167 66.5,465.5 Z"/></g>
<g><path style="opacity:0.004" fill="#fefffe" d="M 27.5,467.5 C 28.8333,468.167 28.8333,468.167 27.5,467.5 Z"/></g>
<g><path style="opacity:0.004" fill="#fefffe" d="M 418.5,467.5 C 419.833,468.167 419.833,468.167 418.5,467.5 Z"/></g>
<g><path style="opacity:0.004" fill="#fefffe" d="M 242.5,472.5 C 243.833,473.167 243.833,473.167 242.5,472.5 Z"/></g>
<g><path style="opacity:0.004" fill="#fefffe" d="M 193.5,483.5 C 194.833,484.167 194.833,484.167 193.5,483.5 Z"/></g>
<g><path style="opacity:0.004" fill="#fefffe" d="M 358.5,483.5 C 359.833,484.167 359.833,484.167 358.5,483.5 Z"/></g>
<g><path style="opacity:0.004" fill="#fefffe" d="M 225.5,493.5 C 226.833,494.167 226.833,494.167 225.5,493.5 Z"/></g>
<g><path style="opacity:0.004" fill="#fefffe" d="M 384.5,493.5 C 385.833,494.167 385.833,494.167 384.5,493.5 Z"/></g>
</svg>
