<?xml version="1.0" encoding="UTF-8"?>
<!DOCTYPE svg PUBLIC "-//W3C//DTD SVG 1.1//EN" "http://www.w3.org/Graphics/SVG/1.1/DTD/svg11.dtd">
<svg xmlns="http://www.w3.org/2000/svg" version="1.1" width="58px" height="58px" style="shape-rendering:geometricPrecision; text-rendering:geometricPrecision; image-rendering:optimizeQuality; fill-rule:evenodd; clip-rule:evenodd" xmlns:xlink="http://www.w3.org/1999/xlink">
<g><path style="opacity:0.724" fill="#45444d" d="M 23.5,-0.5 C 26.8333,-0.5 30.1667,-0.5 33.5,-0.5C 38.9897,3.31981 40.9897,8.65314 39.5,15.5C 40.0356,18.6981 39.369,21.3647 37.5,23.5C 37.8064,20.6146 37.4731,17.9479 36.5,15.5C 37.954,5.78959 33.954,1.62292 24.5,3C 20.8354,6.29784 19.5021,10.4645 20.5,15.5C 19.8343,18.0277 19.1676,20.6944 18.5,23.5C 17.52,20.9135 17.1866,18.2469 17.5,15.5C 16.0103,8.65314 18.0103,3.31981 23.5,-0.5 Z M 36.5,15.5 C 31.1667,15.5 25.8333,15.5 20.5,15.5C 19.5021,10.4645 20.8354,6.29784 24.5,3C 33.954,1.62292 37.954,5.78959 36.5,15.5 Z"/></g>
<g><path style="opacity:1" fill="#fcba79" d="M 17.5,15.5 C 17.1866,18.2469 17.52,20.9135 18.5,23.5C 19.1676,20.6944 19.8343,18.0277 20.5,15.5C 25.8333,15.5 31.1667,15.5 36.5,15.5C 37.4731,17.9479 37.8064,20.6146 37.5,23.5C 36.8485,22.9094 36.1818,22.2427 35.5,21.5C 22.3716,26.7658 15.3716,36.4325 14.5,50.5C 12.8333,50.5 11.1667,50.5 9.5,50.5C 9.5,52.1667 9.5,53.8333 9.5,55.5C 8.33979,42.6732 8.17312,29.6732 9,16.5C 11.7191,15.5562 14.5525,15.2229 17.5,15.5 Z"/></g>
<g><path style="opacity:0.967" fill="#feaa65" d="M 39.5,15.5 C 42.4475,15.2229 45.2809,15.5562 48,16.5C 48.4999,27.8284 48.6665,39.1618 48.5,50.5C 37.1667,50.5 25.8333,50.5 14.5,50.5C 15.3716,36.4325 22.3716,26.7658 35.5,21.5C 36.1818,22.2427 36.8485,22.9094 37.5,23.5C 39.369,21.3647 40.0356,18.6981 39.5,15.5 Z"/></g>
<g><path style="opacity:1" fill="#5d575b" d="M 14.5,50.5 C 25.8333,50.5 37.1667,50.5 48.5,50.5C 48.7845,52.4147 48.4511,54.0813 47.5,55.5C 47.5,54.1667 47.5,52.8333 47.5,51.5C 36.5,51.5 25.5,51.5 14.5,51.5C 14.1667,53.5 13.8333,55.5 13.5,57.5C 12.5,57.5 11.5,57.5 10.5,57.5C 10.1667,56.8333 9.83333,56.1667 9.5,55.5C 9.5,53.8333 9.5,52.1667 9.5,50.5C 11.1667,50.5 12.8333,50.5 14.5,50.5 Z"/></g>
<g><path style="opacity:1" fill="#43434d" d="M 47.5,55.5 C 47.1667,56.1667 46.8333,56.8333 46.5,57.5C 35.5,57.5 24.5,57.5 13.5,57.5C 13.8333,55.5 14.1667,53.5 14.5,51.5C 25.5,51.5 36.5,51.5 47.5,51.5C 47.5,52.8333 47.5,54.1667 47.5,55.5 Z"/></g>
</svg>
