<?xml version="1.0" encoding="UTF-8"?>
<!DOCTYPE svg PUBLIC "-//W3C//DTD SVG 1.1//EN" "http://www.w3.org/Graphics/SVG/1.1/DTD/svg11.dtd">
<svg xmlns="http://www.w3.org/2000/svg" version="1.1" width="32px" height="32px" style="shape-rendering:geometricPrecision; text-rendering:geometricPrecision; image-rendering:optimizeQuality; fill-rule:evenodd; clip-rule:evenodd" xmlns:xlink="http://www.w3.org/1999/xlink">
<g><path style="opacity:0.985" fill="#fddb00" d="M 19.5,6.5 C 16.8333,9.16667 14.1667,9.16667 11.5,6.5C 14.1667,-1.5 16.8333,-1.5 19.5,6.5 Z"/></g>
<g><path style="opacity:0.992" fill="#fcc900" d="M 11.5,6.5 C 14.1667,9.16667 16.8333,9.16667 19.5,6.5C 19.4142,7.4959 19.7476,8.32924 20.5,9C 23.9801,9.30117 27.3134,10.1345 30.5,11.5C 29.4787,13.188 28.1454,14.5213 26.5,15.5C 18.7777,15.7671 11.111,15.4337 3.5,14.5C 2.18819,13.8549 1.18819,12.8549 0.5,11.5C 3.68661,10.1345 7.01995,9.30117 10.5,9C 11.2524,8.32924 11.5858,7.4959 11.5,6.5 Z"/></g>
<g><path style="opacity:1" fill="#fcbc00" d="M 3.5,14.5 C 11.111,15.4337 18.7777,15.7671 26.5,15.5C 25.5244,16.8149 24.5244,18.1482 23.5,19.5C 23.8627,20.1835 24.1961,20.8501 24.5,21.5C 18.5,20.1667 12.5,20.1667 6.5,21.5C 6.80393,20.8501 7.13727,20.1835 7.5,19.5C 6.14311,17.8144 4.80978,16.1477 3.5,14.5 Z"/></g>
<g><path style="opacity:1" fill="#f9ab00" d="M 24.5,21.5 C 24.6741,23.861 25.0074,26.1944 25.5,28.5C 21.7337,28.2847 18.4003,26.9513 15.5,24.5C 12.5997,26.9513 9.26635,28.2847 5.5,28.5C 5.99255,26.1944 6.32588,23.861 6.5,21.5C 12.5,20.1667 18.5,20.1667 24.5,21.5 Z"/></g>
</svg>
